<?xml version="1.0" encoding="UTF-8" standalone="no"?>
<!DOCTYPE svg PUBLIC "-//W3C//DTD SVG 1.0//EN" "http://www.w3.org/TR/2001/PR-SVG-20010719/DTD/svg10.dtd">
<svg width="53cm" height="44cm" viewBox="-85 -554 1043 865" xmlns="http://www.w3.org/2000/svg" xmlns:xlink="http://www.w3.org/1999/xlink">
  <g>
    <rect style="fill: #ffffff" x="531.383" y="248.289" width="113.15" height="28"/>
    <rect style="fill: none; fill-opacity:0; stroke-width: 2; stroke: #000000" x="531.383" y="248.289" width="113.15" height="28"/>
    <text font-size="16" style="fill: #000000;text-anchor:middle;font-family:sans-serif;font-style:normal;font-weight:700" x="587.958" y="267.289">Component</text>
  </g>
  <g>
    <rect style="fill: #ffffff" x="383.788" y="78.0513" width="62.45" height="28"/>
    <rect style="fill: none; fill-opacity:0; stroke-width: 2; stroke: #000000" x="383.788" y="78.0513" width="62.45" height="28"/>
    <text font-size="16" style="fill: #000000;text-anchor:middle;font-family:sans-serif;font-style:normal;font-weight:700" x="415.013" y="97.0513">Flight</text>
  </g>
  <g>
    <rect style="fill: #ffffff" x="812.591" y="64.0208" width="48" height="28"/>
    <rect style="fill: none; fill-opacity:0; stroke-width: 2; stroke: #000000" x="812.591" y="64.0208" width="48" height="28"/>
    <text font-size="16" style="fill: #000000;text-anchor:middle;font-family:sans-serif;font-style:normal;font-weight:700" x="836.591" y="83.0208">Grid</text>
  </g>
  <g>
    <rect style="fill: #ffffff" x="688.487" y="33.2892" width="76.3" height="28"/>
    <rect style="fill: none; fill-opacity:0; stroke-width: 2; stroke: #000000" x="688.487" y="33.2892" width="76.3" height="28"/>
    <text font-size="16" style="fill: #000000;text-anchor:middle;font-family:sans-serif;font-style:normal;font-weight:700" x="726.637" y="52.2892">Ground</text>
  </g>
  <g>
    <rect style="fill: #ffffff" x="359.496" y="247.43" width="110.55" height="28"/>
    <rect style="fill: none; fill-opacity:0; stroke-width: 2; stroke: #000000" x="359.496" y="247.43" width="110.55" height="28"/>
    <text font-size="16" style="fill: #000000;text-anchor:middle;font-family:sans-serif;font-style:normal;font-weight:700" x="414.771" y="266.43">Manoeuvre</text>
  </g>
  <g>
    <rect style="fill: #ffffff" x="198.813" y="-411.106" width="197.7" height="42"/>
    <rect style="fill: none; fill-opacity:0; stroke-width: 2; stroke: #000000" x="198.813" y="-411.106" width="197.7" height="42"/>
    <text font-size="16" style="fill: #000000;text-anchor:middle;font-family:sans-serif;font-style:normal;font-weight:700" x="297.663" y="-392.106">Renderer</text>
    <text font-size="11.2" style="fill: #000000;text-anchor:middle;font-family:sans-serif;font-style:italic;font-weight:normal" x="297.663" y="-376.606">extends GLSurfaceView.Renderer</text>
  </g>
  <g>
    <rect style="fill: #ffffff" x="492.579" y="-50.4497" width="64.1" height="28"/>
    <rect style="fill: none; fill-opacity:0; stroke-width: 2; stroke: #000000" x="492.579" y="-50.4497" width="64.1" height="28"/>
    <text font-size="16" style="fill: #000000;text-anchor:middle;font-family:sans-serif;font-style:normal;font-weight:700" x="524.629" y="-31.4497">Scene</text>
  </g>
  <g>
    <rect style="fill: #ffffff" x="611.08" y="138.991" width="102.4" height="44"/>
    <rect style="fill: none; fill-opacity:0; stroke-width: 2; stroke: #000000" x="611.08" y="138.991" width="102.4" height="44"/>
    <text font-size="12.8" style="fill: #000000;text-anchor:middle;font-family:monospace;font-style:normal;font-weight:normal" x="662.28" y="154.991">&lt;&lt;abstract&gt;&gt;</text>
    <text font-size="16" style="fill: #000000;text-anchor:middle;font-family:sans-serif;font-style:italic;font-weight:700" x="662.28" y="173.991">Shape</text>
  </g>
  <g>
    <polyline style="fill: none; fill-opacity:0; stroke-width: 2; stroke: #000000" points="662.28,202.233 662.28,223.639 587.958,223.639 587.958,247.282 "/>
    <polygon style="fill: #ffffff" points="670.28,202.233 662.28,186.233 654.28,202.233 "/>
    <polygon style="fill: none; fill-opacity:0; stroke-width: 2; stroke: #000000" points="670.28,202.233 662.28,186.233 654.28,202.233 "/>
  </g>
  <g>
    <polyline style="fill: none; fill-opacity:0; stroke-width: 2; stroke: #000000" points="662.28,119.75 662.28,92.1411 726.637,92.1411 726.637,62.2966 "/>
    <polygon style="fill: #ffffff" points="654.28,119.75 662.28,135.75 670.28,119.75 "/>
    <polygon style="fill: none; fill-opacity:0; stroke-width: 2; stroke: #000000" points="654.28,119.75 662.28,135.75 670.28,119.75 "/>
  </g>
  <g>
    <polyline style="fill: none; fill-opacity:0; stroke-width: 2; stroke: #000000" points="732.722,160.991 771.036,160.991 771.036,78.0208 811.585,78.0208 "/>
    <polygon style="fill: #ffffff" points="732.722,152.991 716.722,160.991 732.722,168.991 "/>
    <polygon style="fill: none; fill-opacity:0; stroke-width: 2; stroke: #000000" points="732.722,152.991 716.722,160.991 732.722,168.991 "/>
  </g>
  <g>
    <rect style="fill: #ffffff" x="469.458" y="54.2684" width="110.1" height="44"/>
    <rect style="fill: none; fill-opacity:0; stroke-width: 2; stroke: #000000" x="469.458" y="54.2684" width="110.1" height="44"/>
    <text font-size="12.8" style="fill: #000000;text-anchor:middle;font-family:monospace;font-style:normal;font-weight:normal" x="524.508" y="70.2684">&lt;&lt;interface&gt;&gt;</text>
    <text font-size="16" style="fill: #000000;text-anchor:middle;font-family:sans-serif;font-style:normal;font-weight:700" x="524.508" y="89.2684">Drawable</text>
  </g>
  <g>
    <rect style="fill: #ffffff" x="238.473" y="-144.362" width="148.25" height="44"/>
    <rect style="fill: none; fill-opacity:0; stroke-width: 2; stroke: #000000" x="238.473" y="-144.362" width="148.25" height="44"/>
    <text font-size="12.8" style="fill: #000000;text-anchor:middle;font-family:monospace;font-style:normal;font-weight:normal" x="312.598" y="-128.362">&lt;&lt;enumeration&gt;&gt;</text>
    <text font-size="16" style="fill: #000000;text-anchor:middle;font-family:sans-serif;font-style:normal;font-weight:700" x="312.598" y="-109.362">AnimationStyle</text>
  </g>
  <g>
    <polyline style="fill: none; fill-opacity:0; stroke-width: 2; stroke-dasharray: 8; stroke: #000000" points="598.801,76.2684 662.28,76.2684 662.28,137.986 "/>
    <polygon style="fill: #ffffff" points="598.801,68.2684 582.801,76.2684 598.801,84.2684 "/>
    <polygon style="fill: none; fill-opacity:0; stroke-width: 2; stroke: #000000" points="598.801,68.2684 582.801,76.2684 598.801,84.2684 "/>
  </g>
  <g>
    <polyline style="fill: none; fill-opacity:0; stroke-width: 2; stroke-dasharray: 8; stroke: #000000" points="598.801,76.2684 642.021,76.2684 642.021,47.2892 687.478,47.2892 "/>
    <polygon style="fill: #ffffff" points="598.801,68.2684 582.801,76.2684 598.801,84.2684 "/>
    <polygon style="fill: none; fill-opacity:0; stroke-width: 2; stroke: #000000" points="598.801,68.2684 582.801,76.2684 598.801,84.2684 "/>
  </g>
  <g>
    <polyline style="fill: none; fill-opacity:0; stroke-width: 2; stroke-dasharray: 8; stroke: #000000" points="598.801,76.2684 704.075,76.2684 704.075,78.0208 811.585,78.0208 "/>
    <polygon style="fill: #ffffff" points="598.801,68.2684 582.801,76.2684 598.801,84.2684 "/>
    <polygon style="fill: none; fill-opacity:0; stroke-width: 2; stroke: #000000" points="598.801,68.2684 582.801,76.2684 598.801,84.2684 "/>
  </g>
  <g>
    <polyline style="fill: none; fill-opacity:0; stroke-width: 2; stroke-dasharray: 8; stroke: #000000" points="524.508,117.51 524.508,181.278 587.958,181.278 587.958,247.282 "/>
    <polygon style="fill: #ffffff" points="532.508,117.51 524.508,101.51 516.508,117.51 "/>
    <polygon style="fill: none; fill-opacity:0; stroke-width: 2; stroke: #000000" points="532.508,117.51 524.508,101.51 516.508,117.51 "/>
  </g>
  <g>
    <polyline style="fill: none; fill-opacity:0; stroke-width: 2; stroke-dasharray: 8; stroke: #000000" points="524.508,117.51 524.508,180.848 414.771,180.848 414.771,246.422 "/>
    <polygon style="fill: #ffffff" points="532.508,117.51 524.508,101.51 516.508,117.51 "/>
    <polygon style="fill: none; fill-opacity:0; stroke-width: 2; stroke: #000000" points="532.508,117.51 524.508,101.51 516.508,117.51 "/>
  </g>
  <g>
    <polyline style="fill: none; fill-opacity:0; stroke-width: 2; stroke-dasharray: 8; stroke: #000000" points="524.508,117.51 524.508,136.274 415.013,136.274 415.013,107.059 "/>
    <polygon style="fill: #ffffff" points="532.508,117.51 524.508,101.51 516.508,117.51 "/>
    <polygon style="fill: none; fill-opacity:0; stroke-width: 2; stroke: #000000" points="532.508,117.51 524.508,101.51 516.508,117.51 "/>
  </g>
  <g>
    <polyline style="fill: none; fill-opacity:0; stroke-width: 2; stroke: #000000" points="496.224,261.43 507.714,261.43 507.714,262.289 530.376,262.289 "/>
    <polygon style="fill: #ffffff" points="471.053,261.43 485.053,256.63 499.053,261.43 485.053,266.23 "/>
    <polygon style="fill: none; fill-opacity:0; stroke-width: 2; stroke: #000000" points="471.053,261.43 485.053,256.63 499.053,261.43 485.053,266.23 "/>
    <text font-size="12.7998" style="fill: #000000;text-anchor:start;font-family:monospace;font-style:normal;font-weight:normal" x="509.714" y="257.859"/>
    <text font-size="12.7998" style="fill: #000000;text-anchor:start;font-family:monospace;font-style:normal;font-weight:normal" x="503.053" y="257.43"/>
    <text font-size="12.7998" style="fill: #000000;text-anchor:end;font-family:monospace;font-style:normal;font-weight:normal" x="526.376" y="258.289"/>
  </g>
  <g>
    <polyline style="fill: none; fill-opacity:0; stroke-width: 2; stroke: #000000" points="415.013,132.23 415.013,183.74 414.771,183.74 414.771,246.422 "/>
    <polygon style="fill: #ffffff" points="415.013,107.059 419.813,121.059 415.013,135.059 410.213,121.059 "/>
    <polygon style="fill: none; fill-opacity:0; stroke-width: 2; stroke: #000000" points="415.013,107.059 419.813,121.059 415.013,135.059 410.213,121.059 "/>
    <text font-size="12.7998" style="fill: #000000;text-anchor:middle;font-family:monospace;font-style:normal;font-weight:normal" x="414.892" y="179.74"/>
    <text font-size="12.7998" style="fill: #000000;text-anchor:start;font-family:monospace;font-style:normal;font-weight:normal" x="426.013" y="119.059"/>
    <text font-size="12.7998" style="fill: #000000;text-anchor:start;font-family:monospace;font-style:normal;font-weight:normal" x="418.771" y="242.422"/>
  </g>
  <g>
    <polyline style="fill: none; fill-opacity:0; stroke-width: 2; stroke: #000000" points="524.629,3.72922 524.629,34.8008 415.013,34.8008 415.013,77.044 "/>
    <polygon style="fill: #ffffff" points="524.629,-21.4424 529.429,-7.44236 524.629,6.55764 519.829,-7.44236 "/>
    <polygon style="fill: none; fill-opacity:0; stroke-width: 2; stroke: #000000" points="524.629,-21.4424 529.429,-7.44236 524.629,6.55764 519.829,-7.44236 "/>
    <text font-size="12.7998" style="fill: #000000;text-anchor:middle;font-family:monospace;font-style:normal;font-weight:normal" x="469.821" y="30.8008"/>
    <text font-size="12.7998" style="fill: #000000;text-anchor:start;font-family:monospace;font-style:normal;font-weight:normal" x="535.629" y="-9.44236"/>
    <text font-size="12.7998" style="fill: #000000;text-anchor:start;font-family:monospace;font-style:normal;font-weight:normal" x="419.013" y="73.044"/>
  </g>
  <g>
    <rect style="fill: #ffffff" x="525.06" y="-243.289" width="120.95" height="42"/>
    <rect style="fill: none; fill-opacity:0; stroke-width: 2; stroke: #000000" x="525.06" y="-243.289" width="120.95" height="42"/>
    <text font-size="16" style="fill: #000000;text-anchor:middle;font-family:sans-serif;font-style:normal;font-weight:700" x="585.535" y="-224.289">OLANdroid</text>
    <text font-size="11.2" style="fill: #000000;text-anchor:middle;font-family:sans-serif;font-style:italic;font-weight:normal" x="585.535" y="-208.789">extends Application</text>
  </g>
  <g>
    <rect style="fill: #ffffff" x="214.679" y="-244.872" width="181.4" height="42"/>
    <rect style="fill: none; fill-opacity:0; stroke-width: 2; stroke: #000000" x="214.679" y="-244.872" width="181.4" height="42"/>
    <text font-size="16" style="fill: #000000;text-anchor:middle;font-family:sans-serif;font-style:normal;font-weight:700" x="305.379" y="-225.872">AnimationManager</text>
    <text font-size="11.2" style="fill: #000000;text-anchor:middle;font-family:sans-serif;font-style:italic;font-weight:normal" x="305.379" y="-210.372">extends Observable</text>
  </g>
  <g>
    <rect style="fill: #ffffff" x="712.085" y="-233.437" width="141.55" height="28"/>
    <rect style="fill: none; fill-opacity:0; stroke-width: 2; stroke: #000000" x="712.085" y="-233.437" width="141.55" height="28"/>
    <text font-size="16" style="fill: #000000;text-anchor:middle;font-family:sans-serif;font-style:normal;font-weight:700" x="782.86" y="-214.437">FlightManager</text>
  </g>
  <g>
    <rect style="fill: #ffffff" x="678.46" y="-171.35" width="201.75" height="28"/>
    <rect style="fill: none; fill-opacity:0; stroke-width: 2; stroke: #000000" x="678.46" y="-171.35" width="201.75" height="28"/>
    <text font-size="16" style="fill: #000000;text-anchor:middle;font-family:sans-serif;font-style:normal;font-weight:700" x="779.335" y="-152.35">ManoeuvreCatalogue</text>
  </g>
  <g>
    <polyline style="fill: none; fill-opacity:0; stroke-width: 2; stroke: #000000" points="498.88,-222.289 453.568,-222.289 453.568,-223.872 397.085,-223.872 "/>
    <polygon style="fill: #ffffff" points="524.052,-222.289 510.052,-217.489 496.052,-222.289 510.052,-227.089 "/>
    <polygon style="fill: none; fill-opacity:0; stroke-width: 2; stroke: #000000" points="524.052,-222.289 510.052,-217.489 496.052,-222.289 510.052,-227.089 "/>
    <text font-size="12.7998" style="fill: #000000;text-anchor:start;font-family:monospace;font-style:normal;font-weight:normal" x="455.568" y="-227.08"/>
    <text font-size="12.7998" style="fill: #000000;text-anchor:end;font-family:monospace;font-style:normal;font-weight:normal" x="492.052" y="-226.289"/>
    <text font-size="12.7998" style="fill: #000000;text-anchor:start;font-family:monospace;font-style:normal;font-weight:normal" x="401.085" y="-227.872"/>
  </g>
  <g>
    <polyline style="fill: none; fill-opacity:0; stroke-width: 2; stroke: #000000" points="672.189,-222.289 686.047,-222.289 686.047,-219.437 711.076,-219.437 "/>
    <polygon style="fill: #ffffff" points="647.017,-222.289 661.017,-227.089 675.017,-222.289 661.017,-217.489 "/>
    <polygon style="fill: none; fill-opacity:0; stroke-width: 2; stroke: #000000" points="647.017,-222.289 661.017,-227.089 675.017,-222.289 661.017,-217.489 "/>
    <text font-size="12.7998" style="fill: #000000;text-anchor:start;font-family:monospace;font-style:normal;font-weight:normal" x="688.047" y="-224.863"/>
    <text font-size="12.7998" style="fill: #000000;text-anchor:start;font-family:monospace;font-style:normal;font-weight:normal" x="679.017" y="-226.289"/>
    <text font-size="12.7998" style="fill: #000000;text-anchor:end;font-family:monospace;font-style:normal;font-weight:normal" x="707.076" y="-223.437"/>
  </g>
  <g>
    <polyline style="fill: none; fill-opacity:0; stroke-width: 2; stroke: #000000" points="585.535,-175.112 585.535,-157.35 677.454,-157.35 "/>
    <polygon style="fill: #ffffff" points="585.535,-200.284 590.335,-186.284 585.535,-172.284 580.735,-186.284 "/>
    <polygon style="fill: none; fill-opacity:0; stroke-width: 2; stroke: #000000" points="585.535,-200.284 590.335,-186.284 585.535,-172.284 580.735,-186.284 "/>
    <text font-size="12.7998" style="fill: #000000;text-anchor:middle;font-family:monospace;font-style:normal;font-weight:normal" x="631.494" y="-161.35"/>
    <text font-size="12.7998" style="fill: #000000;text-anchor:start;font-family:monospace;font-style:normal;font-weight:normal" x="596.535" y="-188.284"/>
    <text font-size="12.7998" style="fill: #000000;text-anchor:end;font-family:monospace;font-style:normal;font-weight:normal" x="673.454" y="-161.35"/>
  </g>
  <g>
    <polyline style="fill: none; fill-opacity:0; stroke-width: 2; stroke: #000000" points="585.535,-175.112 585.535,-118.87 524.629,-118.87 524.629,-51.457 "/>
    <polygon style="fill: #ffffff" points="585.535,-200.284 590.335,-186.284 585.535,-172.284 580.735,-186.284 "/>
    <polygon style="fill: none; fill-opacity:0; stroke-width: 2; stroke: #000000" points="585.535,-200.284 590.335,-186.284 585.535,-172.284 580.735,-186.284 "/>
    <text font-size="12.7998" style="fill: #000000;text-anchor:middle;font-family:monospace;font-style:normal;font-weight:normal" x="555.082" y="-122.87"/>
    <text font-size="12.7998" style="fill: #000000;text-anchor:start;font-family:monospace;font-style:normal;font-weight:normal" x="596.535" y="-188.284"/>
    <text font-size="12.7998" style="fill: #000000;text-anchor:start;font-family:monospace;font-style:normal;font-weight:normal" x="528.629" y="-55.457"/>
  </g>
  <g>
    <rect style="fill: #ffffff" x="734.149" y="240.906" width="176.7" height="44"/>
    <rect style="fill: none; fill-opacity:0; stroke-width: 2; stroke: #000000" x="734.149" y="240.906" width="176.7" height="44"/>
    <text font-size="12.8" style="fill: #000000;text-anchor:middle;font-family:monospace;font-style:normal;font-weight:normal" x="822.499" y="256.906">&lt;&lt;enumeration&gt;&gt;</text>
    <text font-size="16" style="fill: #000000;text-anchor:middle;font-family:sans-serif;font-style:normal;font-weight:700" x="822.499" y="275.906">Component.Bound</text>
  </g>
  <g>
    <polyline style="fill: none; fill-opacity:0; stroke-width: 2; stroke: #000000" points="422.691,-390.106 451.545,-390.106 451.545,-36.4497 491.571,-36.4497 "/>
    <polygon style="fill: #ffffff" points="397.519,-390.106 411.519,-394.906 425.519,-390.106 411.519,-385.306 "/>
    <polygon style="fill: none; fill-opacity:0; stroke-width: 2; stroke: #000000" points="397.519,-390.106 411.519,-394.906 425.519,-390.106 411.519,-385.306 "/>
    <text font-size="12.7998" style="fill: #000000;text-anchor:start;font-family:monospace;font-style:normal;font-weight:normal" x="453.545" y="-217.278"/>
    <text font-size="12.7998" style="fill: #000000;text-anchor:start;font-family:monospace;font-style:normal;font-weight:normal" x="429.519" y="-394.106"/>
    <text font-size="12.7998" style="fill: #000000;text-anchor:end;font-family:monospace;font-style:normal;font-weight:normal" x="487.571" y="-40.4497"/>
  </g>
  <g>
    <polyline style="fill: none; fill-opacity:0; stroke-width: 2; stroke: #000000" points="422.256,-223.872 451.328,-223.872 451.328,-36.4497 491.571,-36.4497 "/>
    <polygon style="fill: #ffffff" points="397.085,-223.872 411.085,-228.672 425.085,-223.872 411.085,-219.072 "/>
    <polygon style="fill: none; fill-opacity:0; stroke-width: 2; stroke: #000000" points="397.085,-223.872 411.085,-228.672 425.085,-223.872 411.085,-219.072 "/>
    <text font-size="12.7998" style="fill: #000000;text-anchor:start;font-family:monospace;font-style:normal;font-weight:normal" x="453.328" y="-134.161"/>
    <text font-size="12.7998" style="fill: #000000;text-anchor:start;font-family:monospace;font-style:normal;font-weight:normal" x="429.085" y="-227.872"/>
    <text font-size="12.7998" style="fill: #000000;text-anchor:end;font-family:monospace;font-style:normal;font-weight:normal" x="487.571" y="-40.4497"/>
  </g>
  <g>
    <rect style="fill: #ffffff" x="232.19" y="-322.133" width="342.75" height="28"/>
    <rect style="fill: none; fill-opacity:0; stroke-width: 2; stroke: #000000" x="232.19" y="-322.133" width="342.75" height="28"/>
    <text font-size="16" style="fill: #000000;text-anchor:middle;font-family:sans-serif;font-style:normal;font-weight:700" x="403.565" y="-303.133">AnimationManager.AnimationRunner</text>
  </g>
  <g>
    <polyline style="fill: none; fill-opacity:0; stroke-width: 2; stroke: #000000" points="305.379,-271.049 305.379,-276.502 403.565,-276.502 403.565,-293.126 "/>
    <polygon style="fill: #ffffff" points="305.379,-245.877 300.579,-259.877 305.379,-273.877 310.179,-259.877 "/>
    <polygon style="fill: none; fill-opacity:0; stroke-width: 2; stroke: #000000" points="305.379,-245.877 300.579,-259.877 305.379,-273.877 310.179,-259.877 "/>
    <text font-size="12.7998" style="fill: #000000;text-anchor:middle;font-family:monospace;font-style:normal;font-weight:normal" x="354.472" y="-280.502"/>
    <text font-size="12.7998" style="fill: #000000;text-anchor:start;font-family:monospace;font-style:normal;font-weight:normal" x="316.379" y="-249.877"/>
    <text font-size="12.7998" style="fill: #000000;text-anchor:start;font-family:monospace;font-style:normal;font-weight:normal" x="407.565" y="-281.126"/>
  </g>
  <g>
    <polyline style="fill: none; fill-opacity:0; stroke-width: 2; stroke: #000000" points="670.712,262.289 696.342,262.289 696.342,262.906 733.144,262.906 "/>
    <polygon style="fill: #ffffff" points="645.54,262.289 659.54,257.489 673.54,262.289 659.54,267.089 "/>
    <polygon style="fill: none; fill-opacity:0; stroke-width: 2; stroke: #000000" points="645.54,262.289 659.54,257.489 673.54,262.289 659.54,267.089 "/>
    <text font-size="12.7998" style="fill: #000000;text-anchor:start;font-family:monospace;font-style:normal;font-weight:normal" x="698.342" y="258.598"/>
    <text font-size="12.7998" style="fill: #000000;text-anchor:start;font-family:monospace;font-style:normal;font-weight:normal" x="677.54" y="258.289"/>
    <text font-size="12.7998" style="fill: #000000;text-anchor:end;font-family:monospace;font-style:normal;font-weight:normal" x="729.144" y="258.906"/>
  </g>
  <g>
    <polyline style="fill: none; fill-opacity:0; stroke-width: 2; stroke: #000000" points="305.379,-176.695 305.379,-166.617 312.598,-166.617 312.598,-145.368 "/>
    <polygon style="fill: #ffffff" points="305.379,-201.866 310.179,-187.866 305.379,-173.866 300.579,-187.866 "/>
    <polygon style="fill: none; fill-opacity:0; stroke-width: 2; stroke: #000000" points="305.379,-201.866 310.179,-187.866 305.379,-173.866 300.579,-187.866 "/>
    <text font-size="12.7998" style="fill: #000000;text-anchor:middle;font-family:monospace;font-style:normal;font-weight:normal" x="308.989" y="-170.617"/>
    <text font-size="12.7998" style="fill: #000000;text-anchor:start;font-family:monospace;font-style:normal;font-weight:normal" x="316.379" y="-189.866"/>
    <text font-size="12.7998" style="fill: #000000;text-anchor:start;font-family:monospace;font-style:normal;font-weight:normal" x="316.598" y="-149.368"/>
  </g>
  <g>
    <rect style="fill: #ffffff" x="521.069" y="-469.413" width="177.6" height="42"/>
    <rect style="fill: none; fill-opacity:0; stroke-width: 2; stroke: #000000" x="521.069" y="-469.413" width="177.6" height="42"/>
    <text font-size="16" style="fill: #000000;text-anchor:middle;font-family:sans-serif;font-style:normal;font-weight:700" x="609.869" y="-450.413">BuildFlightActivity</text>
    <text font-size="11.2" style="fill: #000000;text-anchor:middle;font-family:sans-serif;font-style:italic;font-weight:normal" x="609.869" y="-434.913">extends ActionBarActivity</text>
  </g>
  <g>
    <rect style="fill: #ffffff" x="719.846" y="-470.504" width="210.65" height="42"/>
    <rect style="fill: none; fill-opacity:0; stroke-width: 2; stroke: #000000" x="719.846" y="-470.504" width="210.65" height="42"/>
    <text font-size="16" style="fill: #000000;text-anchor:middle;font-family:sans-serif;font-style:normal;font-weight:700" x="825.171" y="-451.504">FlightManagerActivity</text>
    <text font-size="11.2" style="fill: #000000;text-anchor:middle;font-family:sans-serif;font-style:italic;font-weight:normal" x="825.171" y="-436.004">extends ActionBarActivity</text>
  </g>
  <g>
    <rect style="fill: #ffffff" x="404.419" y="-537.034" width="154.95" height="42"/>
    <rect style="fill: none; fill-opacity:0; stroke-width: 2; stroke: #000000" x="404.419" y="-537.034" width="154.95" height="42"/>
    <text font-size="16" style="fill: #000000;text-anchor:middle;font-family:sans-serif;font-style:normal;font-weight:700" x="481.894" y="-518.034">SettingActivity</text>
    <text font-size="11.2" style="fill: #000000;text-anchor:middle;font-family:sans-serif;font-style:italic;font-weight:normal" x="481.894" y="-502.534">extends ActionBarActivity</text>
  </g>
  <g>
    <rect style="fill: #ffffff" x="-67.4202" y="-477.798" width="195.25" height="42"/>
    <rect style="fill: none; fill-opacity:0; stroke-width: 2; stroke: #000000" x="-67.4202" y="-477.798" width="195.25" height="42"/>
    <text font-size="16" style="fill: #000000;text-anchor:middle;font-family:sans-serif;font-style:normal;font-weight:700" x="30.2048" y="-458.798">VisualisationActivity</text>
    <text font-size="11.2" style="fill: #000000;text-anchor:middle;font-family:sans-serif;font-style:italic;font-weight:normal" x="30.2048" y="-443.298">extends ActionBarActivity</text>
  </g>
  <g>
    <rect style="fill: #ffffff" x="237.93" y="-532.574" width="122.15" height="56"/>
    <rect style="fill: none; fill-opacity:0; stroke-width: 2; stroke: #000000" x="237.93" y="-532.574" width="122.15" height="56"/>
    <text font-size="16" style="fill: #000000;text-anchor:middle;font-family:sans-serif;font-style:normal;font-weight:700" x="299.005" y="-513.574">SurfaceView</text>
    <text font-size="11.2" style="fill: #000000;text-anchor:middle;font-family:sans-serif;font-style:italic;font-weight:normal" x="299.005" y="-498.074">extends</text>
    <text font-size="11.2" style="fill: #000000;text-anchor:middle;font-family:sans-serif;font-style:italic;font-weight:normal" x="299.005" y="-484.074">GLSurfaceView</text>
  </g>
  <g>
    <polyline style="fill: none; fill-opacity:0; stroke-width: 2; stroke: #000000" points="299.005,-450.395 299.005,-436.839 297.663,-436.839 297.663,-412.111 "/>
    <polygon style="fill: #ffffff" points="299.005,-475.567 303.805,-461.567 299.005,-447.567 294.205,-461.567 "/>
    <polygon style="fill: none; fill-opacity:0; stroke-width: 2; stroke: #000000" points="299.005,-475.567 303.805,-461.567 299.005,-447.567 294.205,-461.567 "/>
    <text font-size="12.7998" style="fill: #000000;text-anchor:middle;font-family:monospace;font-style:normal;font-weight:normal" x="298.334" y="-440.839"/>
    <text font-size="12.7998" style="fill: #000000;text-anchor:start;font-family:monospace;font-style:normal;font-weight:normal" x="310.005" y="-463.567"/>
    <text font-size="12.7998" style="fill: #000000;text-anchor:start;font-family:monospace;font-style:normal;font-weight:normal" x="301.663" y="-416.111"/>
  </g>
  <g>
    <polyline style="fill: none; fill-opacity:0; stroke-width: 2; stroke: #000000" points="154.007,-456.798 189.879,-456.798 189.879,-504.574 236.922,-504.574 "/>
    <polygon style="fill: #ffffff" points="128.836,-456.798 142.836,-461.598 156.836,-456.798 142.836,-451.998 "/>
    <polygon style="fill: none; fill-opacity:0; stroke-width: 2; stroke: #000000" points="128.836,-456.798 142.836,-461.598 156.836,-456.798 142.836,-451.998 "/>
    <text font-size="12.7998" style="fill: #000000;text-anchor:start;font-family:monospace;font-style:normal;font-weight:normal" x="191.879" y="-484.686"/>
    <text font-size="12.7998" style="fill: #000000;text-anchor:start;font-family:monospace;font-style:normal;font-weight:normal" x="160.836" y="-460.798"/>
    <text font-size="12.7998" style="fill: #000000;text-anchor:end;font-family:monospace;font-style:normal;font-weight:normal" x="232.922" y="-508.574"/>
  </g>
  <g>
    <polyline style="fill: none; fill-opacity:0; stroke-width: 2; stroke: #000000" points="825.171,-402.327 825.171,-323.972 782.86,-323.972 782.86,-234.444 "/>
    <polygon style="fill: #ffffff" points="825.171,-427.499 829.971,-413.499 825.171,-399.499 820.371,-413.499 "/>
    <polygon style="fill: none; fill-opacity:0; stroke-width: 2; stroke: #000000" points="825.171,-427.499 829.971,-413.499 825.171,-399.499 820.371,-413.499 "/>
    <text font-size="12.7998" style="fill: #000000;text-anchor:middle;font-family:monospace;font-style:normal;font-weight:normal" x="804.015" y="-327.972"/>
    <text font-size="12.7998" style="fill: #000000;text-anchor:start;font-family:monospace;font-style:normal;font-weight:normal" x="836.171" y="-415.499"/>
    <text font-size="12.7998" style="fill: #000000;text-anchor:start;font-family:monospace;font-style:normal;font-weight:normal" x="786.86" y="-238.444"/>
  </g>
  <g>
    <polyline style="fill: none; fill-opacity:0; stroke-width: 2; stroke: #000000" points="154.007,-456.798 178.255,-456.798 178.255,-223.872 213.674,-223.872 "/>
    <polygon style="fill: #ffffff" points="128.836,-456.798 142.836,-461.598 156.836,-456.798 142.836,-451.998 "/>
    <polygon style="fill: none; fill-opacity:0; stroke-width: 2; stroke: #000000" points="128.836,-456.798 142.836,-461.598 156.836,-456.798 142.836,-451.998 "/>
    <text font-size="12.7998" style="fill: #000000;text-anchor:start;font-family:monospace;font-style:normal;font-weight:normal" x="180.255" y="-344.335"/>
    <text font-size="12.7998" style="fill: #000000;text-anchor:start;font-family:monospace;font-style:normal;font-weight:normal" x="160.836" y="-460.798"/>
    <text font-size="12.7998" style="fill: #000000;text-anchor:end;font-family:monospace;font-style:normal;font-weight:normal" x="209.674" y="-227.872"/>
  </g>
  <g>
    <polyline style="fill: none; fill-opacity:0; stroke-width: 2; stroke: #000000" points="609.869,-401.236 609.869,-323.426 782.86,-323.426 782.86,-234.444 "/>
    <polygon style="fill: #ffffff" points="609.869,-426.408 614.669,-412.408 609.869,-398.408 605.069,-412.408 "/>
    <polygon style="fill: none; fill-opacity:0; stroke-width: 2; stroke: #000000" points="609.869,-426.408 614.669,-412.408 609.869,-398.408 605.069,-412.408 "/>
    <text font-size="12.7998" style="fill: #000000;text-anchor:middle;font-family:monospace;font-style:normal;font-weight:normal" x="696.364" y="-327.426"/>
    <text font-size="12.7998" style="fill: #000000;text-anchor:start;font-family:monospace;font-style:normal;font-weight:normal" x="620.869" y="-414.408"/>
    <text font-size="12.7998" style="fill: #000000;text-anchor:start;font-family:monospace;font-style:normal;font-weight:normal" x="786.86" y="-238.444"/>
  </g>
  <g>
    <polyline style="fill: none; fill-opacity:0; stroke-width: 2; stroke: #000000" points="524.629,3.72922 524.629,22.9102 524.508,22.9102 524.508,53.2628 "/>
    <polygon style="fill: #ffffff" points="524.629,-21.4424 529.429,-7.44236 524.629,6.55764 519.829,-7.44236 "/>
    <polygon style="fill: none; fill-opacity:0; stroke-width: 2; stroke: #000000" points="524.629,-21.4424 529.429,-7.44236 524.629,6.55764 519.829,-7.44236 "/>
  </g>
  <rect style="fill: none; fill-opacity:0; stroke-width: 6; stroke-dasharray: 4; stroke: #00ff00" x="331.893" y="9.57511" width="602.25" height="299"/>
  <rect style="fill: none; fill-opacity:0; stroke-width: 6; stroke-dasharray: 4; stroke: #0000ff" x="172.143" y="-333.425" width="751" height="319"/>
  <rect style="fill: none; fill-opacity:0; stroke-width: 6; stroke-dasharray: 4; stroke: #ff0000" x="-81.8571" y="-550.425" width="1037" height="205"/>
</svg>
