<?xml version="1.0" encoding="UTF-8" standalone="no"?>
<!DOCTYPE svg PUBLIC "-//W3C//DTD SVG 1.0//EN" "http://www.w3.org/TR/2001/PR-SVG-20010719/DTD/svg10.dtd">
<svg width="57cm" height="52cm" viewBox="-35 -675 1132 1030" xmlns="http://www.w3.org/2000/svg" xmlns:xlink="http://www.w3.org/1999/xlink">
  <g>
    <rect style="fill: #ffffff" x="-33.4422" y="-653.435" width="1129.75" height="1007.78"/>
    <rect style="fill: none; fill-opacity:0; stroke-width: 2; stroke: #888888" x="-33.4422" y="-653.435" width="1129.75" height="1007.78"/>
    <rect style="fill: #ffffff" x="-33.4422" y="-673.435" width="196.5" height="20"/>
    <rect style="fill: none; fill-opacity:0; stroke-width: 2; stroke: #888888" x="-33.4422" y="-673.435" width="196.5" height="20"/>
    <text font-size="12.7998" style="fill: #000000;text-anchor:start;font-family:monospace;font-style:normal;font-weight:normal" x="-31.4422" y="-659.435">uk.ac.aber.gij2.olandroid</text>
  </g>
  <g>
    <rect style="fill: #eeeeee" x="-15.1022" y="-588.523" width="1097.51" height="929.126"/>
    <rect style="fill: none; fill-opacity:0; stroke-width: 2; stroke: #888888" x="-15.1022" y="-588.523" width="1097.51" height="929.126"/>
    <rect style="fill: #eeeeee" x="-15.1022" y="-608.523" width="40" height="20"/>
    <rect style="fill: none; fill-opacity:0; stroke-width: 2; stroke: #888888" x="-15.1022" y="-608.523" width="40" height="20"/>
    <text font-size="12.7998" style="fill: #000000;text-anchor:start;font-family:monospace;font-style:normal;font-weight:normal" x="-13.1022" y="-594.523">view</text>
  </g>
  <g>
    <rect style="fill: #dddddd" x="-15.3658" y="-293.248" width="943.037" height="276.934"/>
    <rect style="fill: none; fill-opacity:0; stroke-width: 2; stroke: #888888" x="-15.3658" y="-293.248" width="943.037" height="276.934"/>
    <rect style="fill: #dddddd" x="-15.3658" y="-313.248" width="81" height="20"/>
    <rect style="fill: none; fill-opacity:0; stroke-width: 2; stroke: #888888" x="-15.3658" y="-313.248" width="81" height="20"/>
    <text font-size="12.7998" style="fill: #000000;text-anchor:start;font-family:monospace;font-style:normal;font-weight:normal" x="-13.3658" y="-299.248">controller</text>
  </g>
  <g>
    <rect style="fill: #cccccc" x="-15.383" y="-15.754" width="514.323" height="356.264"/>
    <rect style="fill: none; fill-opacity:0; stroke-width: 2; stroke: #888888" x="-15.383" y="-15.754" width="514.323" height="356.264"/>
    <rect style="fill: #cccccc" x="-15.383" y="-35.754" width="42.5" height="20"/>
    <rect style="fill: none; fill-opacity:0; stroke-width: 2; stroke: #888888" x="-15.383" y="-35.754" width="42.5" height="20"/>
    <text font-size="12.7998" style="fill: #000000;text-anchor:start;font-family:monospace;font-style:normal;font-weight:normal" x="-13.383" y="-21.754">model</text>
  </g>
  <g>
    <rect style="fill: #ffffff" x="377.611" y="295.893" width="113.15" height="28"/>
    <rect style="fill: none; fill-opacity:0; stroke-width: 2; stroke: #000000" x="377.611" y="295.893" width="113.15" height="28"/>
    <text font-size="16" style="fill: #000000;text-anchor:middle;font-family:sans-serif;font-style:normal;font-weight:700" x="434.186" y="314.893">Component</text>
  </g>
  <g>
    <rect style="fill: #ffffff" x="308.046" y="89.2393" width="62.45" height="28"/>
    <rect style="fill: none; fill-opacity:0; stroke-width: 2; stroke: #000000" x="308.046" y="89.2393" width="62.45" height="28"/>
    <text font-size="16" style="fill: #000000;text-anchor:middle;font-family:sans-serif;font-style:normal;font-weight:700" x="339.271" y="108.239">Flight</text>
  </g>
  <g>
    <rect style="fill: #ffffff" x="958.386" y="73.279" width="48" height="28"/>
    <rect style="fill: none; fill-opacity:0; stroke-width: 2; stroke: #000000" x="958.386" y="73.279" width="48" height="28"/>
    <text font-size="16" style="fill: #000000;text-anchor:middle;font-family:sans-serif;font-style:normal;font-weight:700" x="982.386" y="92.279">Grid</text>
  </g>
  <g>
    <rect style="fill: #ffffff" x="956.945" y="203.278" width="76.3" height="28"/>
    <rect style="fill: none; fill-opacity:0; stroke-width: 2; stroke: #000000" x="956.945" y="203.278" width="76.3" height="28"/>
    <text font-size="16" style="fill: #000000;text-anchor:middle;font-family:sans-serif;font-style:normal;font-weight:700" x="995.095" y="222.278">Ground</text>
  </g>
  <g>
    <rect style="fill: #ffffff" x="285.319" y="212.277" width="110.55" height="28"/>
    <rect style="fill: none; fill-opacity:0; stroke-width: 2; stroke: #000000" x="285.319" y="212.277" width="110.55" height="28"/>
    <text font-size="16" style="fill: #000000;text-anchor:middle;font-family:sans-serif;font-style:normal;font-weight:700" x="340.594" y="231.277">Manoeuvre</text>
  </g>
  <g>
    <rect style="fill: #ffffff" x="274.909" y="-412.023" width="197.7" height="42"/>
    <rect style="fill: none; fill-opacity:0; stroke-width: 2; stroke: #000000" x="274.909" y="-412.023" width="197.7" height="42"/>
    <text font-size="16" style="fill: #000000;text-anchor:middle;font-family:sans-serif;font-style:normal;font-weight:700" x="373.759" y="-393.023">Renderer</text>
    <text font-size="11.2" style="fill: #000000;text-anchor:middle;font-family:sans-serif;font-style:italic;font-weight:normal" x="373.759" y="-377.523">extends GLSurfaceView.Renderer</text>
  </g>
  <g>
    <rect style="fill: #ffffff" x="515.505" y="-70.6236" width="64.1" height="28"/>
    <rect style="fill: none; fill-opacity:0; stroke-width: 2; stroke: #000000" x="515.505" y="-70.6236" width="64.1" height="28"/>
    <text font-size="16" style="fill: #000000;text-anchor:middle;font-family:sans-serif;font-style:normal;font-weight:700" x="547.555" y="-51.6236">Scene</text>
  </g>
  <g>
    <rect style="fill: #ffffff" x="773.185" y="202.866" width="102.4" height="44"/>
    <rect style="fill: none; fill-opacity:0; stroke-width: 2; stroke: #000000" x="773.185" y="202.866" width="102.4" height="44"/>
    <text font-size="12.8" style="fill: #000000;text-anchor:middle;font-family:monospace;font-style:normal;font-weight:normal" x="824.385" y="218.866">&lt;&lt;abstract&gt;&gt;</text>
    <text font-size="16" style="fill: #000000;text-anchor:middle;font-family:sans-serif;font-style:italic;font-weight:700" x="824.385" y="237.866">Shape</text>
  </g>
  <g>
    <polyline style="fill: none; fill-opacity:0; stroke-width: 2; stroke: #000000" points="753.942,224.866 576.527,224.866 576.527,226.277 396.876,226.277 "/>
    <polygon style="fill: #ffffff" points="753.942,232.866 769.942,224.866 753.942,216.866 "/>
    <polygon style="fill: none; fill-opacity:0; stroke-width: 2; stroke: #000000" points="753.942,232.866 769.942,224.866 753.942,216.866 "/>
  </g>
  <g>
    <polyline style="fill: none; fill-opacity:0; stroke-width: 2; stroke: #000000" points="894.827,224.866 924.263,224.866 924.263,217.278 955.935,217.278 "/>
    <polygon style="fill: #ffffff" points="894.827,216.866 878.827,224.866 894.827,232.866 "/>
    <polygon style="fill: none; fill-opacity:0; stroke-width: 2; stroke: #000000" points="894.827,216.866 878.827,224.866 894.827,232.866 "/>
  </g>
  <g>
    <polyline style="fill: none; fill-opacity:0; stroke-width: 2; stroke: #000000" points="894.827,224.866 924.986,224.866 924.986,87.279 957.38,87.279 "/>
    <polygon style="fill: #ffffff" points="894.827,216.866 878.827,224.866 894.827,232.866 "/>
    <polygon style="fill: none; fill-opacity:0; stroke-width: 2; stroke: #000000" points="894.827,216.866 878.827,224.866 894.827,232.866 "/>
  </g>
  <g>
    <rect style="fill: #ffffff" x="664.632" y="24.4412" width="110.1" height="44"/>
    <rect style="fill: none; fill-opacity:0; stroke-width: 2; stroke: #000000" x="664.632" y="24.4412" width="110.1" height="44"/>
    <text font-size="12.8" style="fill: #000000;text-anchor:middle;font-family:monospace;font-style:normal;font-weight:normal" x="719.682" y="40.4412">&lt;&lt;interface&gt;&gt;</text>
    <text font-size="16" style="fill: #000000;text-anchor:middle;font-family:sans-serif;font-style:normal;font-weight:700" x="719.682" y="59.4412">Drawable</text>
  </g>
  <g>
    <rect style="fill: #ffffff" x="11.0576" y="-242.481" width="148.25" height="44"/>
    <rect style="fill: none; fill-opacity:0; stroke-width: 2; stroke: #000000" x="11.0576" y="-242.481" width="148.25" height="44"/>
    <text font-size="12.8" style="fill: #000000;text-anchor:middle;font-family:monospace;font-style:normal;font-weight:normal" x="85.1826" y="-226.481">&lt;&lt;enumeration&gt;&gt;</text>
    <text font-size="16" style="fill: #000000;text-anchor:middle;font-family:sans-serif;font-style:normal;font-weight:700" x="85.1826" y="-207.481">AnimationStyle</text>
  </g>
  <g>
    <polyline style="fill: none; fill-opacity:0; stroke-width: 2; stroke-dasharray: 8; stroke: #000000" points="719.682,87.6829 719.682,143.654 824.385,143.654 824.385,201.86 "/>
    <polygon style="fill: #ffffff" points="727.682,87.6829 719.682,71.6829 711.682,87.6829 "/>
    <polygon style="fill: none; fill-opacity:0; stroke-width: 2; stroke: #000000" points="727.682,87.6829 719.682,71.6829 711.682,87.6829 "/>
  </g>
  <g>
    <polyline style="fill: none; fill-opacity:0; stroke-width: 2; stroke-dasharray: 8; stroke: #000000" points="719.682,87.6829 719.682,143.859 995.095,143.859 995.095,202.271 "/>
    <polygon style="fill: #ffffff" points="727.682,87.6829 719.682,71.6829 711.682,87.6829 "/>
    <polygon style="fill: none; fill-opacity:0; stroke-width: 2; stroke: #000000" points="727.682,87.6829 719.682,71.6829 711.682,87.6829 "/>
  </g>
  <g>
    <polyline style="fill: none; fill-opacity:0; stroke-width: 2; stroke-dasharray: 8; stroke: #000000" points="793.975,46.4412 874.559,46.4412 874.559,87.279 957.38,87.279 "/>
    <polygon style="fill: #ffffff" points="793.975,38.4412 777.975,46.4412 793.975,54.4412 "/>
    <polygon style="fill: none; fill-opacity:0; stroke-width: 2; stroke: #000000" points="793.975,38.4412 777.975,46.4412 793.975,54.4412 "/>
  </g>
  <g>
    <polyline style="fill: none; fill-opacity:0; stroke-width: 2; stroke-dasharray: 8; stroke: #000000" points="613.571,206.116 613.571,249.383 434.186,249.383 434.186,294.886 "/>
    <polygon style="fill: #ffffff" points="621.571,206.116 613.571,190.116 605.571,206.116 "/>
    <polygon style="fill: none; fill-opacity:0; stroke-width: 2; stroke: #000000" points="621.571,206.116 613.571,190.116 605.571,206.116 "/>
  </g>
  <g>
    <polyline style="fill: none; fill-opacity:0; stroke-width: 2; stroke-dasharray: 8; stroke: #000000" points="517.35,164.874 458.231,164.874 458.231,226.277 396.876,226.277 "/>
    <polygon style="fill: #ffffff" points="517.35,172.874 533.35,164.874 517.35,156.874 "/>
    <polygon style="fill: none; fill-opacity:0; stroke-width: 2; stroke: #000000" points="517.35,172.874 533.35,164.874 517.35,156.874 "/>
  </g>
  <g>
    <polyline style="fill: none; fill-opacity:0; stroke-width: 2; stroke-dasharray: 8; stroke: #000000" points="517.35,164.874 445.545,164.874 445.545,103.239 371.504,103.239 "/>
    <polygon style="fill: #ffffff" points="517.35,172.874 533.35,164.874 517.35,156.874 "/>
    <polygon style="fill: none; fill-opacity:0; stroke-width: 2; stroke: #000000" points="517.35,172.874 533.35,164.874 517.35,156.874 "/>
  </g>
  <g>
    <polyline style="fill: none; fill-opacity:0; stroke-width: 2; stroke: #000000" points="340.594,266.456 340.594,275.085 434.186,275.085 434.186,294.886 "/>
    <polygon style="fill: #ffffff" points="340.594,241.285 345.394,255.285 340.594,269.285 335.794,255.285 "/>
    <polygon style="fill: none; fill-opacity:0; stroke-width: 2; stroke: #000000" points="340.594,241.285 345.394,255.285 340.594,269.285 335.794,255.285 "/>
    <text font-size="12.7998" style="fill: #000000;text-anchor:middle;font-family:monospace;font-style:normal;font-weight:normal" x="387.39" y="271.085"/>
    <text font-size="12.7998" style="fill: #000000;text-anchor:start;font-family:monospace;font-style:normal;font-weight:normal" x="351.594" y="253.285"/>
    <text font-size="12.7998" style="fill: #000000;text-anchor:start;font-family:monospace;font-style:normal;font-weight:normal" x="438.186" y="290.886"/>
  </g>
  <g>
    <polyline style="fill: none; fill-opacity:0; stroke-width: 2; stroke: #000000" points="339.271,143.418 339.271,171.758 340.594,171.758 340.594,211.27 "/>
    <polygon style="fill: #ffffff" points="339.271,118.247 344.071,132.247 339.271,146.247 334.471,132.247 "/>
    <polygon style="fill: none; fill-opacity:0; stroke-width: 2; stroke: #000000" points="339.271,118.247 344.071,132.247 339.271,146.247 334.471,132.247 "/>
    <text font-size="12.7998" style="fill: #000000;text-anchor:middle;font-family:monospace;font-style:normal;font-weight:normal" x="339.933" y="167.758"/>
    <text font-size="12.7998" style="fill: #000000;text-anchor:start;font-family:monospace;font-style:normal;font-weight:normal" x="350.271" y="130.247"/>
    <text font-size="12.7998" style="fill: #000000;text-anchor:start;font-family:monospace;font-style:normal;font-weight:normal" x="344.594" y="207.27"/>
  </g>
  <g>
    <polyline style="fill: none; fill-opacity:0; stroke-width: 2; stroke: #000000" points="547.555,-16.4447 547.555,30.3078 339.271,30.3078 339.271,88.232 "/>
    <polygon style="fill: #ffffff" points="547.555,-41.6163 552.355,-27.6163 547.555,-13.6163 542.755,-27.6163 "/>
    <polygon style="fill: none; fill-opacity:0; stroke-width: 2; stroke: #000000" points="547.555,-41.6163 552.355,-27.6163 547.555,-13.6163 542.755,-27.6163 "/>
    <text font-size="12.7998" style="fill: #000000;text-anchor:middle;font-family:monospace;font-style:normal;font-weight:normal" x="443.413" y="26.3078"/>
    <text font-size="12.7998" style="fill: #000000;text-anchor:start;font-family:monospace;font-style:normal;font-weight:normal" x="558.555" y="-29.6163"/>
    <text font-size="12.7998" style="fill: #000000;text-anchor:start;font-family:monospace;font-style:normal;font-weight:normal" x="343.271" y="84.232"/>
  </g>
  <g>
    <rect style="fill: #ffffff" x="545.234" y="-267.13" width="120.95" height="42"/>
    <rect style="fill: none; fill-opacity:0; stroke-width: 2; stroke: #000000" x="545.234" y="-267.13" width="120.95" height="42"/>
    <text font-size="16" style="fill: #000000;text-anchor:middle;font-family:sans-serif;font-style:normal;font-weight:700" x="605.709" y="-248.13">OLANdroid</text>
    <text font-size="11.2" style="fill: #000000;text-anchor:middle;font-family:sans-serif;font-style:italic;font-weight:normal" x="605.709" y="-232.63">extends Application</text>
  </g>
  <g>
    <rect style="fill: #ffffff" x="242.925" y="-241.789" width="181.4" height="42"/>
    <rect style="fill: none; fill-opacity:0; stroke-width: 2; stroke: #000000" x="242.925" y="-241.789" width="181.4" height="42"/>
    <text font-size="16" style="fill: #000000;text-anchor:middle;font-family:sans-serif;font-style:normal;font-weight:700" x="333.625" y="-222.789">AnimationManager</text>
    <text font-size="11.2" style="fill: #000000;text-anchor:middle;font-family:sans-serif;font-style:italic;font-weight:normal" x="333.625" y="-207.289">extends Observable</text>
  </g>
  <g>
    <rect style="fill: #ffffff" x="706.582" y="-206.845" width="141.55" height="28"/>
    <rect style="fill: none; fill-opacity:0; stroke-width: 2; stroke: #000000" x="706.582" y="-206.845" width="141.55" height="28"/>
    <text font-size="16" style="fill: #000000;text-anchor:middle;font-family:sans-serif;font-style:normal;font-weight:700" x="777.357" y="-187.845">FlightManager</text>
  </g>
  <g>
    <rect style="fill: #ffffff" x="707.468" y="-81.9033" width="201.75" height="28"/>
    <rect style="fill: none; fill-opacity:0; stroke-width: 2; stroke: #000000" x="707.468" y="-81.9033" width="201.75" height="28"/>
    <text font-size="16" style="fill: #000000;text-anchor:middle;font-family:sans-serif;font-style:normal;font-weight:700" x="808.343" y="-62.9033">ManoeuvreCatalogue</text>
  </g>
  <g>
    <polyline style="fill: none; fill-opacity:0; stroke-width: 2; stroke: #000000" points="519.055,-246.13 477.779,-246.13 477.779,-220.789 425.331,-220.789 "/>
    <polygon style="fill: #ffffff" points="544.227,-246.13 530.227,-241.33 516.227,-246.13 530.227,-250.93 "/>
    <polygon style="fill: none; fill-opacity:0; stroke-width: 2; stroke: #000000" points="544.227,-246.13 530.227,-241.33 516.227,-246.13 530.227,-250.93 "/>
    <text font-size="12.7998" style="fill: #000000;text-anchor:start;font-family:monospace;font-style:normal;font-weight:normal" x="479.779" y="-237.46"/>
    <text font-size="12.7998" style="fill: #000000;text-anchor:end;font-family:monospace;font-style:normal;font-weight:normal" x="512.227" y="-250.13"/>
    <text font-size="12.7998" style="fill: #000000;text-anchor:start;font-family:monospace;font-style:normal;font-weight:normal" x="429.331" y="-224.789"/>
  </g>
  <g>
    <polyline style="fill: none; fill-opacity:0; stroke-width: 2; stroke: #000000" points="605.709,-198.953 605.709,-140.878 547.555,-140.878 547.555,-71.631 "/>
    <polygon style="fill: #ffffff" points="605.709,-224.125 610.509,-210.125 605.709,-196.125 600.909,-210.125 "/>
    <polygon style="fill: none; fill-opacity:0; stroke-width: 2; stroke: #000000" points="605.709,-224.125 610.509,-210.125 605.709,-196.125 600.909,-210.125 "/>
    <text font-size="12.7998" style="fill: #000000;text-anchor:middle;font-family:monospace;font-style:normal;font-weight:normal" x="576.632" y="-144.878"/>
    <text font-size="12.7998" style="fill: #000000;text-anchor:start;font-family:monospace;font-style:normal;font-weight:normal" x="616.709" y="-212.125"/>
    <text font-size="12.7998" style="fill: #000000;text-anchor:start;font-family:monospace;font-style:normal;font-weight:normal" x="551.555" y="-75.631"/>
  </g>
  <g>
    <rect style="fill: #ffffff" x="91.4834" y="234.944" width="176.7" height="44"/>
    <rect style="fill: none; fill-opacity:0; stroke-width: 2; stroke: #000000" x="91.4834" y="234.944" width="176.7" height="44"/>
    <text font-size="12.8" style="fill: #000000;text-anchor:middle;font-family:monospace;font-style:normal;font-weight:normal" x="179.833" y="250.944">&lt;&lt;enumeration&gt;&gt;</text>
    <text font-size="16" style="fill: #000000;text-anchor:middle;font-family:sans-serif;font-style:normal;font-weight:700" x="179.833" y="269.944">Component.Bound</text>
  </g>
  <g>
    <polyline style="fill: none; fill-opacity:0; stroke-width: 2; stroke: #000000" points="498.787,-391.023 501.056,-391.023 501.056,-56.6236 514.497,-56.6236 "/>
    <polygon style="fill: #ffffff" points="473.615,-391.023 487.615,-395.823 501.615,-391.023 487.615,-386.223 "/>
    <polygon style="fill: none; fill-opacity:0; stroke-width: 2; stroke: #000000" points="473.615,-391.023 487.615,-395.823 501.615,-391.023 487.615,-386.223 "/>
    <text font-size="12.7998" style="fill: #000000;text-anchor:start;font-family:monospace;font-style:normal;font-weight:normal" x="503.056" y="-227.823"/>
    <text font-size="12.7998" style="fill: #000000;text-anchor:start;font-family:monospace;font-style:normal;font-weight:normal" x="505.615" y="-395.023"/>
    <text font-size="12.7998" style="fill: #000000;text-anchor:end;font-family:monospace;font-style:normal;font-weight:normal" x="510.497" y="-60.6236"/>
  </g>
  <g>
    <polyline style="fill: none; fill-opacity:0; stroke-width: 2; stroke: #000000" points="450.502,-220.789 476.914,-220.789 476.914,-56.6236 514.497,-56.6236 "/>
    <polygon style="fill: #ffffff" points="425.331,-220.789 439.331,-225.589 453.331,-220.789 439.331,-215.989 "/>
    <polygon style="fill: none; fill-opacity:0; stroke-width: 2; stroke: #000000" points="425.331,-220.789 439.331,-225.589 453.331,-220.789 439.331,-215.989 "/>
    <text font-size="12.7998" style="fill: #000000;text-anchor:start;font-family:monospace;font-style:normal;font-weight:normal" x="478.914" y="-142.706"/>
    <text font-size="12.7998" style="fill: #000000;text-anchor:start;font-family:monospace;font-style:normal;font-weight:normal" x="457.331" y="-224.789"/>
    <text font-size="12.7998" style="fill: #000000;text-anchor:end;font-family:monospace;font-style:normal;font-weight:normal" x="510.497" y="-60.6236"/>
  </g>
  <g>
    <rect style="fill: #ffffff" x="96.5274" y="-140.434" width="342.75" height="28"/>
    <rect style="fill: none; fill-opacity:0; stroke-width: 2; stroke: #000000" x="96.5274" y="-140.434" width="342.75" height="28"/>
    <text font-size="16" style="fill: #000000;text-anchor:middle;font-family:sans-serif;font-style:normal;font-weight:700" x="267.902" y="-121.434">AnimationManager.AnimationRunner</text>
  </g>
  <g>
    <polyline style="fill: none; fill-opacity:0; stroke-width: 2; stroke: #000000" points="333.625,-173.612 333.625,-163.112 267.902,-163.112 267.902,-141.441 "/>
    <polygon style="fill: #ffffff" points="333.625,-198.784 338.425,-184.784 333.625,-170.784 328.825,-184.784 "/>
    <polygon style="fill: none; fill-opacity:0; stroke-width: 2; stroke: #000000" points="333.625,-198.784 338.425,-184.784 333.625,-170.784 328.825,-184.784 "/>
    <text font-size="12.7998" style="fill: #000000;text-anchor:middle;font-family:monospace;font-style:normal;font-weight:normal" x="300.764" y="-167.112"/>
    <text font-size="12.7998" style="fill: #000000;text-anchor:start;font-family:monospace;font-style:normal;font-weight:normal" x="344.625" y="-186.784"/>
    <text font-size="12.7998" style="fill: #000000;text-anchor:start;font-family:monospace;font-style:normal;font-weight:normal" x="271.902" y="-145.441"/>
  </g>
  <g>
    <polyline style="fill: none; fill-opacity:0; stroke-width: 2; stroke: #000000" points="351.432,309.893 315.896,309.893 315.896,256.944 269.189,256.944 "/>
    <polygon style="fill: #ffffff" points="376.604,309.893 362.604,314.693 348.604,309.893 362.604,305.093 "/>
    <polygon style="fill: none; fill-opacity:0; stroke-width: 2; stroke: #000000" points="376.604,309.893 362.604,314.693 348.604,309.893 362.604,305.093 "/>
    <text font-size="12.7998" style="fill: #000000;text-anchor:start;font-family:monospace;font-style:normal;font-weight:normal" x="317.896" y="279.418"/>
    <text font-size="12.7998" style="fill: #000000;text-anchor:end;font-family:monospace;font-style:normal;font-weight:normal" x="344.604" y="305.893"/>
    <text font-size="12.7998" style="fill: #000000;text-anchor:start;font-family:monospace;font-style:normal;font-weight:normal" x="273.189" y="252.944"/>
  </g>
  <g>
    <polyline style="fill: none; fill-opacity:0; stroke-width: 2; stroke: #000000" points="216.748,-220.789 194.118,-220.789 194.118,-220.481 160.317,-220.481 "/>
    <polygon style="fill: #ffffff" points="241.919,-220.789 227.919,-215.989 213.919,-220.789 227.919,-225.589 "/>
    <polygon style="fill: none; fill-opacity:0; stroke-width: 2; stroke: #000000" points="241.919,-220.789 227.919,-215.989 213.919,-220.789 227.919,-225.589 "/>
    <text font-size="12.7998" style="fill: #000000;text-anchor:start;font-family:monospace;font-style:normal;font-weight:normal" x="196.118" y="-224.635"/>
    <text font-size="12.7998" style="fill: #000000;text-anchor:end;font-family:monospace;font-style:normal;font-weight:normal" x="209.919" y="-224.789"/>
    <text font-size="12.7998" style="fill: #000000;text-anchor:start;font-family:monospace;font-style:normal;font-weight:normal" x="164.317" y="-224.481"/>
  </g>
  <g>
    <rect style="fill: #ffffff" x="564.167" y="-418.06" width="177.6" height="42"/>
    <rect style="fill: none; fill-opacity:0; stroke-width: 2; stroke: #000000" x="564.167" y="-418.06" width="177.6" height="42"/>
    <text font-size="16" style="fill: #000000;text-anchor:middle;font-family:sans-serif;font-style:normal;font-weight:700" x="652.967" y="-399.06">BuildFlightActivity</text>
    <text font-size="11.2" style="fill: #000000;text-anchor:middle;font-family:sans-serif;font-style:italic;font-weight:normal" x="652.967" y="-383.56">extends ActionBarActivity</text>
  </g>
  <g>
    <rect style="fill: #ffffff" x="769.364" y="-416.401" width="210.65" height="42"/>
    <rect style="fill: none; fill-opacity:0; stroke-width: 2; stroke: #000000" x="769.364" y="-416.401" width="210.65" height="42"/>
    <text font-size="16" style="fill: #000000;text-anchor:middle;font-family:sans-serif;font-style:normal;font-weight:700" x="874.689" y="-397.401">FlightManagerActivity</text>
    <text font-size="11.2" style="fill: #000000;text-anchor:middle;font-family:sans-serif;font-style:italic;font-weight:normal" x="874.689" y="-381.901">extends ActionBarActivity</text>
  </g>
  <g>
    <rect style="fill: #ffffff" x="790.134" y="-478.346" width="154.95" height="42"/>
    <rect style="fill: none; fill-opacity:0; stroke-width: 2; stroke: #000000" x="790.134" y="-478.346" width="154.95" height="42"/>
    <text font-size="16" style="fill: #000000;text-anchor:middle;font-family:sans-serif;font-style:normal;font-weight:700" x="867.609" y="-459.346">SettingActivity</text>
    <text font-size="11.2" style="fill: #000000;text-anchor:middle;font-family:sans-serif;font-style:italic;font-weight:normal" x="867.609" y="-443.846">extends ActionBarActivity</text>
  </g>
  <g>
    <rect style="fill: #ffffff" x="17.6789" y="-361.213" width="195.25" height="42"/>
    <rect style="fill: none; fill-opacity:0; stroke-width: 2; stroke: #000000" x="17.6789" y="-361.213" width="195.25" height="42"/>
    <text font-size="16" style="fill: #000000;text-anchor:middle;font-family:sans-serif;font-style:normal;font-weight:700" x="115.304" y="-342.213">VisualisationActivity</text>
    <text font-size="11.2" style="fill: #000000;text-anchor:middle;font-family:sans-serif;font-style:italic;font-weight:normal" x="115.304" y="-326.713">extends ActionBarActivity</text>
  </g>
  <g>
    <rect style="fill: #ffffff" x="312.207" y="-525.238" width="122.15" height="56"/>
    <rect style="fill: none; fill-opacity:0; stroke-width: 2; stroke: #000000" x="312.207" y="-525.238" width="122.15" height="56"/>
    <text font-size="16" style="fill: #000000;text-anchor:middle;font-family:sans-serif;font-style:normal;font-weight:700" x="373.282" y="-506.238">SurfaceView</text>
    <text font-size="11.2" style="fill: #000000;text-anchor:middle;font-family:sans-serif;font-style:italic;font-weight:normal" x="373.282" y="-490.738">extends</text>
    <text font-size="11.2" style="fill: #000000;text-anchor:middle;font-family:sans-serif;font-style:italic;font-weight:normal" x="373.282" y="-476.738">GLSurfaceView</text>
  </g>
  <g>
    <polyline style="fill: none; fill-opacity:0; stroke-width: 2; stroke: #000000" points="373.282,-443.059 373.282,-433.63 373.759,-433.63 373.759,-413.028 "/>
    <polygon style="fill: #ffffff" points="373.282,-468.231 378.082,-454.231 373.282,-440.231 368.482,-454.231 "/>
    <polygon style="fill: none; fill-opacity:0; stroke-width: 2; stroke: #000000" points="373.282,-468.231 378.082,-454.231 373.282,-440.231 368.482,-454.231 "/>
    <text font-size="12.7998" style="fill: #000000;text-anchor:middle;font-family:monospace;font-style:normal;font-weight:normal" x="373.521" y="-437.63"/>
    <text font-size="12.7998" style="fill: #000000;text-anchor:start;font-family:monospace;font-style:normal;font-weight:normal" x="384.282" y="-456.231"/>
    <text font-size="12.7998" style="fill: #000000;text-anchor:start;font-family:monospace;font-style:normal;font-weight:normal" x="377.759" y="-417.028"/>
  </g>
  <g>
    <polyline style="fill: none; fill-opacity:0; stroke-width: 2; stroke: #000000" points="239.106,-340.213 269.567,-340.213 269.567,-497.238 311.2,-497.238 "/>
    <polygon style="fill: #ffffff" points="213.935,-340.213 227.935,-345.013 241.935,-340.213 227.935,-335.413 "/>
    <polygon style="fill: none; fill-opacity:0; stroke-width: 2; stroke: #000000" points="213.935,-340.213 227.935,-345.013 241.935,-340.213 227.935,-335.413 "/>
    <text font-size="12.7998" style="fill: #000000;text-anchor:start;font-family:monospace;font-style:normal;font-weight:normal" x="271.567" y="-422.725"/>
    <text font-size="12.7998" style="fill: #000000;text-anchor:start;font-family:monospace;font-style:normal;font-weight:normal" x="245.935" y="-344.213"/>
    <text font-size="12.7998" style="fill: #000000;text-anchor:end;font-family:monospace;font-style:normal;font-weight:normal" x="307.2" y="-501.238"/>
  </g>
  <g>
    <polyline style="fill: none; fill-opacity:0; stroke-width: 2; stroke: #000000" points="874.689,-348.224 874.689,-283.624 777.357,-283.624 777.357,-207.852 "/>
    <polygon style="fill: #ffffff" points="874.689,-373.396 879.489,-359.396 874.689,-345.396 869.889,-359.396 "/>
    <polygon style="fill: none; fill-opacity:0; stroke-width: 2; stroke: #000000" points="874.689,-373.396 879.489,-359.396 874.689,-345.396 869.889,-359.396 "/>
    <text font-size="12.7998" style="fill: #000000;text-anchor:middle;font-family:monospace;font-style:normal;font-weight:normal" x="826.023" y="-287.624"/>
    <text font-size="12.7998" style="fill: #000000;text-anchor:start;font-family:monospace;font-style:normal;font-weight:normal" x="885.689" y="-361.396"/>
    <text font-size="12.7998" style="fill: #000000;text-anchor:start;font-family:monospace;font-style:normal;font-weight:normal" x="781.357" y="-211.852"/>
  </g>
  <g>
    <polyline style="fill: none; fill-opacity:0; stroke-width: 2; stroke: #000000" points="115.304,-293.036 115.304,-273.501 333.625,-273.501 333.625,-242.794 "/>
    <polygon style="fill: #ffffff" points="115.304,-318.208 120.104,-304.208 115.304,-290.208 110.504,-304.208 "/>
    <polygon style="fill: none; fill-opacity:0; stroke-width: 2; stroke: #000000" points="115.304,-318.208 120.104,-304.208 115.304,-290.208 110.504,-304.208 "/>
    <text font-size="12.7998" style="fill: #000000;text-anchor:middle;font-family:monospace;font-style:normal;font-weight:normal" x="224.464" y="-277.501"/>
    <text font-size="12.7998" style="fill: #000000;text-anchor:start;font-family:monospace;font-style:normal;font-weight:normal" x="126.304" y="-306.208"/>
    <text font-size="12.7998" style="fill: #000000;text-anchor:start;font-family:monospace;font-style:normal;font-weight:normal" x="337.625" y="-246.794"/>
  </g>
  <g>
    <polyline style="fill: none; fill-opacity:0; stroke-width: 2; stroke: #000000" points="652.967,-349.883 652.967,-284.453 777.357,-284.453 777.357,-207.852 "/>
    <polygon style="fill: #ffffff" points="652.967,-375.055 657.767,-361.055 652.967,-347.055 648.167,-361.055 "/>
    <polygon style="fill: none; fill-opacity:0; stroke-width: 2; stroke: #000000" points="652.967,-375.055 657.767,-361.055 652.967,-347.055 648.167,-361.055 "/>
    <text font-size="12.7998" style="fill: #000000;text-anchor:middle;font-family:monospace;font-style:normal;font-weight:normal" x="715.162" y="-288.453"/>
    <text font-size="12.7998" style="fill: #000000;text-anchor:start;font-family:monospace;font-style:normal;font-weight:normal" x="663.967" y="-363.055"/>
    <text font-size="12.7998" style="fill: #000000;text-anchor:start;font-family:monospace;font-style:normal;font-weight:normal" x="781.357" y="-211.852"/>
  </g>
  <g>
    <polyline style="fill: none; fill-opacity:0; stroke-width: 2; stroke: #000000" points="547.555,-16.4447 547.555,-2.09038 719.682,-2.09038 719.682,23.4356 "/>
    <polygon style="fill: #ffffff" points="547.555,-41.6163 552.355,-27.6163 547.555,-13.6163 542.755,-27.6163 "/>
    <polygon style="fill: none; fill-opacity:0; stroke-width: 2; stroke: #000000" points="547.555,-41.6163 552.355,-27.6163 547.555,-13.6163 542.755,-27.6163 "/>
    <text font-size="12.7998" style="fill: #000000;text-anchor:middle;font-family:monospace;font-style:normal;font-weight:normal" x="633.618" y="-6.09038"/>
    <text font-size="12.7998" style="fill: #000000;text-anchor:start;font-family:monospace;font-style:normal;font-weight:normal" x="558.555" y="-29.6163"/>
    <text font-size="12.7998" style="fill: #000000;text-anchor:start;font-family:monospace;font-style:normal;font-weight:normal" x="723.682" y="19.4356"/>
  </g>
  <g>
    <polyline style="fill: none; fill-opacity:0; stroke-width: 2; stroke: #000000" points="777.357,-152.666 777.357,-123.374 808.343,-123.374 808.343,-82.9106 "/>
    <polygon style="fill: #ffffff" points="777.357,-177.838 782.157,-163.838 777.357,-149.838 772.557,-163.838 "/>
    <polygon style="fill: none; fill-opacity:0; stroke-width: 2; stroke: #000000" points="777.357,-177.838 782.157,-163.838 777.357,-149.838 772.557,-163.838 "/>
    <text font-size="12.7998" style="fill: #000000;text-anchor:middle;font-family:monospace;font-style:normal;font-weight:normal" x="792.85" y="-127.374"/>
    <text font-size="12.7998" style="fill: #000000;text-anchor:start;font-family:monospace;font-style:normal;font-weight:normal" x="788.357" y="-165.838"/>
    <text font-size="12.7998" style="fill: #000000;text-anchor:start;font-family:monospace;font-style:normal;font-weight:normal" x="812.343" y="-86.9106"/>
  </g>
  <g>
    <rect style="fill: #ffffff" x="561.379" y="-564.818" width="179.35" height="28"/>
    <rect style="fill: none; fill-opacity:0; stroke-width: 2; stroke: #000000" x="561.379" y="-564.818" width="179.35" height="28"/>
    <text font-size="16" style="fill: #000000;text-anchor:middle;font-family:sans-serif;font-style:normal;font-weight:700" x="651.054" y="-545.818">SurfaceView.Touch</text>
  </g>
  <g>
    <rect style="fill: #ffffff" x="779.047" y="-570.399" width="173.5" height="42"/>
    <rect style="fill: none; fill-opacity:0; stroke-width: 2; stroke: #000000" x="779.047" y="-570.399" width="173.5" height="42"/>
    <text font-size="16" style="fill: #000000;text-anchor:middle;font-family:sans-serif;font-style:normal;font-weight:700" x="865.797" y="-551.399">SettingsFragment</text>
    <text font-size="11.2" style="fill: #000000;text-anchor:middle;font-family:sans-serif;font-style:italic;font-weight:normal" x="865.797" y="-535.899">extends PreferenceFragment</text>
  </g>
  <g>
    <rect style="fill: #ffffff" x="77.0484" y="-635.826" width="41.65" height="28"/>
    <rect style="fill: none; fill-opacity:0; stroke-width: 2; stroke: #000000" x="77.0484" y="-635.826" width="41.65" height="28"/>
    <text font-size="16" style="fill: #000000;text-anchor:middle;font-family:sans-serif;font-style:normal;font-weight:700" x="97.8734" y="-616.826">Util</text>
  </g>
  <g>
    <polyline style="fill: none; fill-opacity:0; stroke-width: 2; stroke-dasharray: 8; stroke: #000000" points="705.573,-192.845 690.382,-192.845 690.382,-246.13 673.897,-246.13 "/>
    <polyline style="fill: none; fill-opacity:0; stroke-width: 2; stroke: #000000" points="686.544,-251.13 670.544,-246.13 686.544,-241.13 "/>
  </g>
  <g>
    <polyline style="fill: none; fill-opacity:0; stroke-width: 2; stroke-dasharray: 8; stroke: #000000" points="706.462,-67.9033 690.827,-67.9033 690.827,-246.13 673.897,-246.13 "/>
    <polyline style="fill: none; fill-opacity:0; stroke-width: 2; stroke: #000000" points="686.544,-251.13 670.544,-246.13 686.544,-241.13 "/>
  </g>
  <g>
    <polyline style="fill: none; fill-opacity:0; stroke-width: 2; stroke-dasharray: 8; stroke: #000000" points="560.373,-550.818 501.869,-550.818 501.869,-497.238 442.07,-497.238 "/>
    <polyline style="fill: none; fill-opacity:0; stroke-width: 2; stroke: #000000" points="454.717,-502.238 438.717,-497.238 454.717,-492.238 "/>
  </g>
  <g>
    <polyline style="fill: none; fill-opacity:0; stroke-width: 2; stroke-dasharray: 8; stroke: #000000" points="865.797,-527.394 865.797,-506.87 867.609,-506.87 867.609,-485.051 "/>
    <polyline style="fill: none; fill-opacity:0; stroke-width: 2; stroke: #000000" points="862.609,-497.699 867.609,-481.699 872.609,-497.699 "/>
  </g>
  <g>
    <rect style="fill: #ffffff" x="536.596" y="142.874" width="153.95" height="44"/>
    <rect style="fill: none; fill-opacity:0; stroke-width: 2; stroke: #000000" x="536.596" y="142.874" width="153.95" height="44"/>
    <text font-size="12.8" style="fill: #000000;text-anchor:middle;font-family:monospace;font-style:normal;font-weight:normal" x="613.571" y="158.874">&lt;&lt;interface&gt;&gt;</text>
    <text font-size="16" style="fill: #000000;text-anchor:middle;font-family:sans-serif;font-style:normal;font-weight:700" x="613.571" y="177.874">Drawable.Flight</text>
  </g>
  <g>
    <polyline style="fill: none; fill-opacity:0; stroke-width: 2; stroke: #000000" points="719.682,87.6829 719.682,113.658 613.571,113.658 613.571,141.869 "/>
    <polygon style="fill: #ffffff" points="727.682,87.6829 719.682,71.6829 711.682,87.6829 "/>
    <polygon style="fill: none; fill-opacity:0; stroke-width: 2; stroke: #000000" points="727.682,87.6829 719.682,71.6829 711.682,87.6829 "/>
  </g>
  <g>
    <rect style="fill: #ffffff" x="575.447" y="-493.154" width="154.95" height="42"/>
    <rect style="fill: none; fill-opacity:0; stroke-width: 2; stroke: #000000" x="575.447" y="-493.154" width="154.95" height="42"/>
    <text font-size="16" style="fill: #000000;text-anchor:middle;font-family:sans-serif;font-style:normal;font-weight:700" x="652.922" y="-474.154">AboutActivity</text>
    <text font-size="11.2" style="fill: #000000;text-anchor:middle;font-family:sans-serif;font-style:italic;font-weight:normal" x="652.922" y="-458.654">extends ActionBarActivity</text>
  </g>
</svg>
