<?xml version="1.0" encoding="UTF-8" standalone="no"?>
<!DOCTYPE svg PUBLIC "-//W3C//DTD SVG 1.0//EN" "http://www.w3.org/TR/2001/PR-SVG-20010719/DTD/svg10.dtd">
<svg width="60cm" height="52cm" viewBox="-191 -696 1182 1035" xmlns="http://www.w3.org/2000/svg" xmlns:xlink="http://www.w3.org/1999/xlink">
  <g>
    <rect style="fill: #ffffff" x="-189.75" y="-674" width="1179" height="1013"/>
    <rect style="fill: none; fill-opacity:0; stroke-width: 2; stroke: #888888" x="-189.75" y="-674" width="1179" height="1013"/>
    <rect style="fill: #ffffff" x="-189.75" y="-694" width="196.5" height="20"/>
    <rect style="fill: none; fill-opacity:0; stroke-width: 2; stroke: #888888" x="-189.75" y="-694" width="196.5" height="20"/>
    <text font-size="12.7998" style="fill: #000000;text-anchor:start;font-family:monospace;font-style:normal;font-weight:normal" x="-187.75" y="-680">uk.ac.aber.gij2.olandroid</text>
  </g>
  <g>
    <rect style="fill: #ffffff" x="-48.75" y="-639" width="1002" height="335"/>
    <rect style="fill: none; fill-opacity:0; stroke-width: 2; stroke: #888888" x="-48.75" y="-639" width="1002" height="335"/>
    <rect style="fill: #ffffff" x="-48.75" y="-659" width="40" height="20"/>
    <rect style="fill: none; fill-opacity:0; stroke-width: 2; stroke: #888888" x="-48.75" y="-659" width="40" height="20"/>
    <text font-size="12.7998" style="fill: #000000;text-anchor:start;font-family:monospace;font-style:normal;font-weight:normal" x="-46.75" y="-645">view</text>
  </g>
  <g>
    <rect style="fill: #ffffff" x="-154.75" y="-259" width="1084" height="245"/>
    <rect style="fill: none; fill-opacity:0; stroke-width: 2; stroke: #888888" x="-154.75" y="-259" width="1084" height="245"/>
    <rect style="fill: #ffffff" x="-154.75" y="-279" width="81" height="20"/>
    <rect style="fill: none; fill-opacity:0; stroke-width: 2; stroke: #888888" x="-154.75" y="-279" width="81" height="20"/>
    <text font-size="12.7998" style="fill: #000000;text-anchor:start;font-family:monospace;font-style:normal;font-weight:normal" x="-152.75" y="-265">controller</text>
  </g>
  <g>
    <rect style="fill: #ffffff" x="327.25" y="22" width="616" height="291"/>
    <rect style="fill: none; fill-opacity:0; stroke-width: 2; stroke: #888888" x="327.25" y="22" width="616" height="291"/>
    <rect style="fill: #ffffff" x="327.25" y="2" width="42.5" height="20"/>
    <rect style="fill: none; fill-opacity:0; stroke-width: 2; stroke: #888888" x="327.25" y="2" width="42.5" height="20"/>
    <text font-size="12.7998" style="fill: #000000;text-anchor:start;font-family:monospace;font-style:normal;font-weight:normal" x="329.25" y="16">model</text>
  </g>
  <g>
    <rect style="fill: #ffffff" x="531.382" y="248.29" width="113.15" height="28"/>
    <rect style="fill: none; fill-opacity:0; stroke-width: 2; stroke: #000000" x="531.382" y="248.29" width="113.15" height="28"/>
    <text font-size="16" style="fill: #000000;text-anchor:middle;font-family:sans-serif;font-style:normal;font-weight:700" x="587.957" y="267.29">Component</text>
  </g>
  <g>
    <rect style="fill: #ffffff" x="383.788" y="78.0512" width="62.45" height="28"/>
    <rect style="fill: none; fill-opacity:0; stroke-width: 2; stroke: #000000" x="383.788" y="78.0512" width="62.45" height="28"/>
    <text font-size="16" style="fill: #000000;text-anchor:middle;font-family:sans-serif;font-style:normal;font-weight:700" x="415.013" y="97.0512">Flight</text>
  </g>
  <g>
    <rect style="fill: #ffffff" x="812.592" y="64.0208" width="48" height="28"/>
    <rect style="fill: none; fill-opacity:0; stroke-width: 2; stroke: #000000" x="812.592" y="64.0208" width="48" height="28"/>
    <text font-size="16" style="fill: #000000;text-anchor:middle;font-family:sans-serif;font-style:normal;font-weight:700" x="836.592" y="83.0208">Grid</text>
  </g>
  <g>
    <rect style="fill: #ffffff" x="688.488" y="33.2892" width="76.3" height="28"/>
    <rect style="fill: none; fill-opacity:0; stroke-width: 2; stroke: #000000" x="688.488" y="33.2892" width="76.3" height="28"/>
    <text font-size="16" style="fill: #000000;text-anchor:middle;font-family:sans-serif;font-style:normal;font-weight:700" x="726.638" y="52.2892">Ground</text>
  </g>
  <g>
    <rect style="fill: #ffffff" x="359.496" y="247.43" width="110.55" height="28"/>
    <rect style="fill: none; fill-opacity:0; stroke-width: 2; stroke: #000000" x="359.496" y="247.43" width="110.55" height="28"/>
    <text font-size="16" style="fill: #000000;text-anchor:middle;font-family:sans-serif;font-style:normal;font-weight:700" x="414.771" y="266.43">Manoeuvre</text>
  </g>
  <g>
    <rect style="fill: #ffffff" x="242.813" y="-411.106" width="197.7" height="42"/>
    <rect style="fill: none; fill-opacity:0; stroke-width: 2; stroke: #000000" x="242.813" y="-411.106" width="197.7" height="42"/>
    <text font-size="16" style="fill: #000000;text-anchor:middle;font-family:sans-serif;font-style:normal;font-weight:700" x="341.663" y="-392.106">Renderer</text>
    <text font-size="11.2" style="fill: #000000;text-anchor:middle;font-family:sans-serif;font-style:italic;font-weight:normal" x="341.663" y="-376.606">extends GLSurfaceView.Renderer</text>
  </g>
  <g>
    <rect style="fill: #ffffff" x="492.58" y="-50.4496" width="64.1" height="28"/>
    <rect style="fill: none; fill-opacity:0; stroke-width: 2; stroke: #000000" x="492.58" y="-50.4496" width="64.1" height="28"/>
    <text font-size="16" style="fill: #000000;text-anchor:middle;font-family:sans-serif;font-style:normal;font-weight:700" x="524.63" y="-31.4496">Scene</text>
  </g>
  <g>
    <rect style="fill: #ffffff" x="611.08" y="138.991" width="102.4" height="44"/>
    <rect style="fill: none; fill-opacity:0; stroke-width: 2; stroke: #000000" x="611.08" y="138.991" width="102.4" height="44"/>
    <text font-size="12.8" style="fill: #000000;text-anchor:middle;font-family:monospace;font-style:normal;font-weight:normal" x="662.28" y="154.991">&lt;&lt;abstract&gt;&gt;</text>
    <text font-size="16" style="fill: #000000;text-anchor:middle;font-family:sans-serif;font-style:italic;font-weight:700" x="662.28" y="173.991">Shape</text>
  </g>
  <g>
    <polyline style="fill: none; fill-opacity:0; stroke-width: 2; stroke: #000000" points="662.28,202.233 662.28,223.64 587.957,223.64 587.957,247.283 "/>
    <polygon style="fill: #ffffff" points="670.28,202.233 662.28,186.233 654.28,202.233 "/>
    <polygon style="fill: none; fill-opacity:0; stroke-width: 2; stroke: #000000" points="670.28,202.233 662.28,186.233 654.28,202.233 "/>
  </g>
  <g>
    <polyline style="fill: none; fill-opacity:0; stroke-width: 2; stroke: #000000" points="662.28,119.75 662.28,92.1411 726.638,92.1411 726.638,62.2965 "/>
    <polygon style="fill: #ffffff" points="654.28,119.75 662.28,135.75 670.28,119.75 "/>
    <polygon style="fill: none; fill-opacity:0; stroke-width: 2; stroke: #000000" points="654.28,119.75 662.28,135.75 670.28,119.75 "/>
  </g>
  <g>
    <polyline style="fill: none; fill-opacity:0; stroke-width: 2; stroke: #000000" points="732.722,160.991 771.036,160.991 771.036,78.0208 811.586,78.0208 "/>
    <polygon style="fill: #ffffff" points="732.722,152.991 716.722,160.991 732.722,168.991 "/>
    <polygon style="fill: none; fill-opacity:0; stroke-width: 2; stroke: #000000" points="732.722,152.991 716.722,160.991 732.722,168.991 "/>
  </g>
  <g>
    <rect style="fill: #ffffff" x="469.458" y="54.2684" width="110.1" height="44"/>
    <rect style="fill: none; fill-opacity:0; stroke-width: 2; stroke: #000000" x="469.458" y="54.2684" width="110.1" height="44"/>
    <text font-size="12.8" style="fill: #000000;text-anchor:middle;font-family:monospace;font-style:normal;font-weight:normal" x="524.508" y="70.2684">&lt;&lt;interface&gt;&gt;</text>
    <text font-size="16" style="fill: #000000;text-anchor:middle;font-family:sans-serif;font-style:normal;font-weight:700" x="524.508" y="89.2684">Drawable</text>
  </g>
  <g>
    <rect style="fill: #ffffff" x="238.474" y="-144.362" width="148.25" height="44"/>
    <rect style="fill: none; fill-opacity:0; stroke-width: 2; stroke: #000000" x="238.474" y="-144.362" width="148.25" height="44"/>
    <text font-size="12.8" style="fill: #000000;text-anchor:middle;font-family:monospace;font-style:normal;font-weight:normal" x="312.599" y="-128.362">&lt;&lt;enumeration&gt;&gt;</text>
    <text font-size="16" style="fill: #000000;text-anchor:middle;font-family:sans-serif;font-style:normal;font-weight:700" x="312.599" y="-109.362">AnimationStyle</text>
  </g>
  <g>
    <polyline style="fill: none; fill-opacity:0; stroke-width: 2; stroke-dasharray: 8; stroke: #000000" points="598.801,76.2684 662.28,76.2684 662.28,137.986 "/>
    <polygon style="fill: #ffffff" points="598.801,68.2684 582.801,76.2684 598.801,84.2684 "/>
    <polygon style="fill: none; fill-opacity:0; stroke-width: 2; stroke: #000000" points="598.801,68.2684 582.801,76.2684 598.801,84.2684 "/>
  </g>
  <g>
    <polyline style="fill: none; fill-opacity:0; stroke-width: 2; stroke-dasharray: 8; stroke: #000000" points="598.801,76.2684 642.022,76.2684 642.022,47.2892 687.478,47.2892 "/>
    <polygon style="fill: #ffffff" points="598.801,68.2684 582.801,76.2684 598.801,84.2684 "/>
    <polygon style="fill: none; fill-opacity:0; stroke-width: 2; stroke: #000000" points="598.801,68.2684 582.801,76.2684 598.801,84.2684 "/>
  </g>
  <g>
    <polyline style="fill: none; fill-opacity:0; stroke-width: 2; stroke-dasharray: 8; stroke: #000000" points="598.801,76.2684 704.075,76.2684 704.075,78.0208 811.586,78.0208 "/>
    <polygon style="fill: #ffffff" points="598.801,68.2684 582.801,76.2684 598.801,84.2684 "/>
    <polygon style="fill: none; fill-opacity:0; stroke-width: 2; stroke: #000000" points="598.801,68.2684 582.801,76.2684 598.801,84.2684 "/>
  </g>
  <g>
    <polyline style="fill: none; fill-opacity:0; stroke-width: 2; stroke-dasharray: 8; stroke: #000000" points="524.508,117.51 524.508,181.278 587.957,181.278 587.957,247.283 "/>
    <polygon style="fill: #ffffff" points="532.508,117.51 524.508,101.51 516.508,117.51 "/>
    <polygon style="fill: none; fill-opacity:0; stroke-width: 2; stroke: #000000" points="532.508,117.51 524.508,101.51 516.508,117.51 "/>
  </g>
  <g>
    <polyline style="fill: none; fill-opacity:0; stroke-width: 2; stroke-dasharray: 8; stroke: #000000" points="524.508,117.51 524.508,180.848 414.771,180.848 414.771,246.423 "/>
    <polygon style="fill: #ffffff" points="532.508,117.51 524.508,101.51 516.508,117.51 "/>
    <polygon style="fill: none; fill-opacity:0; stroke-width: 2; stroke: #000000" points="532.508,117.51 524.508,101.51 516.508,117.51 "/>
  </g>
  <g>
    <polyline style="fill: none; fill-opacity:0; stroke-width: 2; stroke-dasharray: 8; stroke: #000000" points="524.508,117.51 524.508,136.274 415.013,136.274 415.013,107.059 "/>
    <polygon style="fill: #ffffff" points="532.508,117.51 524.508,101.51 516.508,117.51 "/>
    <polygon style="fill: none; fill-opacity:0; stroke-width: 2; stroke: #000000" points="532.508,117.51 524.508,101.51 516.508,117.51 "/>
  </g>
  <g>
    <polyline style="fill: none; fill-opacity:0; stroke-width: 2; stroke: #000000" points="496.224,261.43 507.714,261.43 507.714,262.29 530.375,262.29 "/>
    <polygon style="fill: #ffffff" points="471.053,261.43 485.053,256.63 499.053,261.43 485.053,266.23 "/>
    <polygon style="fill: none; fill-opacity:0; stroke-width: 2; stroke: #000000" points="471.053,261.43 485.053,256.63 499.053,261.43 485.053,266.23 "/>
    <text font-size="12.7998" style="fill: #000000;text-anchor:start;font-family:monospace;font-style:normal;font-weight:normal" x="509.714" y="257.86"/>
    <text font-size="12.7998" style="fill: #000000;text-anchor:start;font-family:monospace;font-style:normal;font-weight:normal" x="503.053" y="257.43"/>
    <text font-size="12.7998" style="fill: #000000;text-anchor:end;font-family:monospace;font-style:normal;font-weight:normal" x="526.375" y="258.29"/>
  </g>
  <g>
    <polyline style="fill: none; fill-opacity:0; stroke-width: 2; stroke: #000000" points="415.013,132.23 415.013,183.741 414.771,183.741 414.771,246.423 "/>
    <polygon style="fill: #ffffff" points="415.013,107.059 419.813,121.059 415.013,135.059 410.213,121.059 "/>
    <polygon style="fill: none; fill-opacity:0; stroke-width: 2; stroke: #000000" points="415.013,107.059 419.813,121.059 415.013,135.059 410.213,121.059 "/>
    <text font-size="12.7998" style="fill: #000000;text-anchor:middle;font-family:monospace;font-style:normal;font-weight:normal" x="414.892" y="179.741"/>
    <text font-size="12.7998" style="fill: #000000;text-anchor:start;font-family:monospace;font-style:normal;font-weight:normal" x="426.013" y="119.059"/>
    <text font-size="12.7998" style="fill: #000000;text-anchor:start;font-family:monospace;font-style:normal;font-weight:normal" x="418.771" y="242.423"/>
  </g>
  <g>
    <polyline style="fill: none; fill-opacity:0; stroke-width: 2; stroke: #000000" points="524.63,3.7293 524.63,34.8008 415.013,34.8008 415.013,77.0439 "/>
    <polygon style="fill: #ffffff" points="524.63,-21.4423 529.43,-7.44228 524.63,6.55772 519.83,-7.44228 "/>
    <polygon style="fill: none; fill-opacity:0; stroke-width: 2; stroke: #000000" points="524.63,-21.4423 529.43,-7.44228 524.63,6.55772 519.83,-7.44228 "/>
    <text font-size="12.7998" style="fill: #000000;text-anchor:middle;font-family:monospace;font-style:normal;font-weight:normal" x="469.822" y="30.8008"/>
    <text font-size="12.7998" style="fill: #000000;text-anchor:start;font-family:monospace;font-style:normal;font-weight:normal" x="535.63" y="-9.44228"/>
    <text font-size="12.7998" style="fill: #000000;text-anchor:start;font-family:monospace;font-style:normal;font-weight:normal" x="419.013" y="73.0439"/>
  </g>
  <g>
    <rect style="fill: #ffffff" x="525.06" y="-243.288" width="120.95" height="42"/>
    <rect style="fill: none; fill-opacity:0; stroke-width: 2; stroke: #000000" x="525.06" y="-243.288" width="120.95" height="42"/>
    <text font-size="16" style="fill: #000000;text-anchor:middle;font-family:sans-serif;font-style:normal;font-weight:700" x="585.535" y="-224.288">OLANdroid</text>
    <text font-size="11.2" style="fill: #000000;text-anchor:middle;font-family:sans-serif;font-style:italic;font-weight:normal" x="585.535" y="-208.788">extends Application</text>
  </g>
  <g>
    <rect style="fill: #ffffff" x="256.68" y="-240.872" width="181.4" height="42"/>
    <rect style="fill: none; fill-opacity:0; stroke-width: 2; stroke: #000000" x="256.68" y="-240.872" width="181.4" height="42"/>
    <text font-size="16" style="fill: #000000;text-anchor:middle;font-family:sans-serif;font-style:normal;font-weight:700" x="347.38" y="-221.872">AnimationManager</text>
    <text font-size="11.2" style="fill: #000000;text-anchor:middle;font-family:sans-serif;font-style:italic;font-weight:normal" x="347.38" y="-206.372">extends Observable</text>
  </g>
  <g>
    <rect style="fill: #ffffff" x="712.084" y="-233.438" width="141.55" height="28"/>
    <rect style="fill: none; fill-opacity:0; stroke-width: 2; stroke: #000000" x="712.084" y="-233.438" width="141.55" height="28"/>
    <text font-size="16" style="fill: #000000;text-anchor:middle;font-family:sans-serif;font-style:normal;font-weight:700" x="782.859" y="-214.438">FlightManager</text>
  </g>
  <g>
    <rect style="fill: #ffffff" x="685.46" y="-165.35" width="201.75" height="28"/>
    <rect style="fill: none; fill-opacity:0; stroke-width: 2; stroke: #000000" x="685.46" y="-165.35" width="201.75" height="28"/>
    <text font-size="16" style="fill: #000000;text-anchor:middle;font-family:sans-serif;font-style:normal;font-weight:700" x="786.335" y="-146.35">ManoeuvreCatalogue</text>
  </g>
  <g>
    <polyline style="fill: none; fill-opacity:0; stroke-width: 2; stroke: #000000" points="498.881,-222.288 474.569,-222.288 474.569,-219.872 439.086,-219.872 "/>
    <polygon style="fill: #ffffff" points="524.052,-222.288 510.052,-217.488 496.052,-222.288 510.052,-227.088 "/>
    <polygon style="fill: none; fill-opacity:0; stroke-width: 2; stroke: #000000" points="524.052,-222.288 510.052,-217.488 496.052,-222.288 510.052,-227.088 "/>
    <text font-size="12.7998" style="fill: #000000;text-anchor:start;font-family:monospace;font-style:normal;font-weight:normal" x="476.569" y="-225.08"/>
    <text font-size="12.7998" style="fill: #000000;text-anchor:end;font-family:monospace;font-style:normal;font-weight:normal" x="492.052" y="-226.288"/>
    <text font-size="12.7998" style="fill: #000000;text-anchor:start;font-family:monospace;font-style:normal;font-weight:normal" x="443.086" y="-223.872"/>
  </g>
  <g>
    <polyline style="fill: none; fill-opacity:0; stroke-width: 2; stroke: #000000" points="585.535,-175.111 585.535,-118.87 524.63,-118.87 524.63,-51.4569 "/>
    <polygon style="fill: #ffffff" points="585.535,-200.283 590.335,-186.283 585.535,-172.283 580.735,-186.283 "/>
    <polygon style="fill: none; fill-opacity:0; stroke-width: 2; stroke: #000000" points="585.535,-200.283 590.335,-186.283 585.535,-172.283 580.735,-186.283 "/>
    <text font-size="12.7998" style="fill: #000000;text-anchor:middle;font-family:monospace;font-style:normal;font-weight:normal" x="555.082" y="-122.87"/>
    <text font-size="12.7998" style="fill: #000000;text-anchor:start;font-family:monospace;font-style:normal;font-weight:normal" x="596.535" y="-188.283"/>
    <text font-size="12.7998" style="fill: #000000;text-anchor:start;font-family:monospace;font-style:normal;font-weight:normal" x="528.63" y="-55.4569"/>
  </g>
  <g>
    <rect style="fill: #ffffff" x="734.15" y="240.906" width="176.7" height="44"/>
    <rect style="fill: none; fill-opacity:0; stroke-width: 2; stroke: #000000" x="734.15" y="240.906" width="176.7" height="44"/>
    <text font-size="12.8" style="fill: #000000;text-anchor:middle;font-family:monospace;font-style:normal;font-weight:normal" x="822.5" y="256.906">&lt;&lt;enumeration&gt;&gt;</text>
    <text font-size="16" style="fill: #000000;text-anchor:middle;font-family:sans-serif;font-style:normal;font-weight:700" x="822.5" y="275.906">Component.Bound</text>
  </g>
  <g>
    <polyline style="fill: none; fill-opacity:0; stroke-width: 2; stroke: #000000" points="466.691,-390.106 473.546,-390.106 473.546,-36.4496 491.572,-36.4496 "/>
    <polygon style="fill: #ffffff" points="441.519,-390.106 455.519,-394.906 469.519,-390.106 455.519,-385.306 "/>
    <polygon style="fill: none; fill-opacity:0; stroke-width: 2; stroke: #000000" points="441.519,-390.106 455.519,-394.906 469.519,-390.106 455.519,-385.306 "/>
    <text font-size="12.7998" style="fill: #000000;text-anchor:start;font-family:monospace;font-style:normal;font-weight:normal" x="475.546" y="-217.278"/>
    <text font-size="12.7998" style="fill: #000000;text-anchor:start;font-family:monospace;font-style:normal;font-weight:normal" x="473.519" y="-394.106"/>
    <text font-size="12.7998" style="fill: #000000;text-anchor:end;font-family:monospace;font-style:normal;font-weight:normal" x="487.572" y="-40.4496"/>
  </g>
  <g>
    <polyline style="fill: none; fill-opacity:0; stroke-width: 2; stroke: #000000" points="464.257,-219.872 472.329,-219.872 472.329,-36.4496 491.572,-36.4496 "/>
    <polygon style="fill: #ffffff" points="439.086,-219.872 453.086,-224.672 467.086,-219.872 453.086,-215.072 "/>
    <polygon style="fill: none; fill-opacity:0; stroke-width: 2; stroke: #000000" points="439.086,-219.872 453.086,-224.672 467.086,-219.872 453.086,-215.072 "/>
    <text font-size="12.7998" style="fill: #000000;text-anchor:start;font-family:monospace;font-style:normal;font-weight:normal" x="474.329" y="-132.161"/>
    <text font-size="12.7998" style="fill: #000000;text-anchor:start;font-family:monospace;font-style:normal;font-weight:normal" x="471.086" y="-223.872"/>
    <text font-size="12.7998" style="fill: #000000;text-anchor:end;font-family:monospace;font-style:normal;font-weight:normal" x="487.572" y="-40.4496"/>
  </g>
  <g>
    <rect style="fill: #ffffff" x="-142.81" y="-232.134" width="342.75" height="28"/>
    <rect style="fill: none; fill-opacity:0; stroke-width: 2; stroke: #000000" x="-142.81" y="-232.134" width="342.75" height="28"/>
    <text font-size="16" style="fill: #000000;text-anchor:middle;font-family:sans-serif;font-style:normal;font-weight:700" x="28.565" y="-213.134">AnimationManager.AnimationRunner</text>
  </g>
  <g>
    <polyline style="fill: none; fill-opacity:0; stroke-width: 2; stroke: #000000" points="230.503,-219.872 221.31,-219.872 221.31,-218.134 200.945,-218.134 "/>
    <polygon style="fill: #ffffff" points="255.674,-219.872 241.674,-215.072 227.674,-219.872 241.674,-224.672 "/>
    <polygon style="fill: none; fill-opacity:0; stroke-width: 2; stroke: #000000" points="255.674,-219.872 241.674,-215.072 227.674,-219.872 241.674,-224.672 "/>
    <text font-size="12.7998" style="fill: #000000;text-anchor:start;font-family:monospace;font-style:normal;font-weight:normal" x="223.31" y="-223.003"/>
    <text font-size="12.7998" style="fill: #000000;text-anchor:end;font-family:monospace;font-style:normal;font-weight:normal" x="223.674" y="-223.872"/>
    <text font-size="12.7998" style="fill: #000000;text-anchor:start;font-family:monospace;font-style:normal;font-weight:normal" x="204.945" y="-222.134"/>
  </g>
  <g>
    <polyline style="fill: none; fill-opacity:0; stroke-width: 2; stroke: #000000" points="670.711,262.29 696.342,262.29 696.342,262.906 733.145,262.906 "/>
    <polygon style="fill: #ffffff" points="645.539,262.29 659.539,257.49 673.539,262.29 659.539,267.09 "/>
    <polygon style="fill: none; fill-opacity:0; stroke-width: 2; stroke: #000000" points="645.539,262.29 659.539,257.49 673.539,262.29 659.539,267.09 "/>
    <text font-size="12.7998" style="fill: #000000;text-anchor:start;font-family:monospace;font-style:normal;font-weight:normal" x="698.342" y="258.598"/>
    <text font-size="12.7998" style="fill: #000000;text-anchor:start;font-family:monospace;font-style:normal;font-weight:normal" x="677.539" y="258.29"/>
    <text font-size="12.7998" style="fill: #000000;text-anchor:end;font-family:monospace;font-style:normal;font-weight:normal" x="729.145" y="258.906"/>
  </g>
  <g>
    <polyline style="fill: none; fill-opacity:0; stroke-width: 2; stroke: #000000" points="347.38,-172.695 347.38,-164.617 312.599,-164.617 312.599,-145.368 "/>
    <polygon style="fill: #ffffff" points="347.38,-197.867 352.18,-183.867 347.38,-169.867 342.58,-183.867 "/>
    <polygon style="fill: none; fill-opacity:0; stroke-width: 2; stroke: #000000" points="347.38,-197.867 352.18,-183.867 347.38,-169.867 342.58,-183.867 "/>
    <text font-size="12.7998" style="fill: #000000;text-anchor:middle;font-family:monospace;font-style:normal;font-weight:normal" x="329.99" y="-168.617"/>
    <text font-size="12.7998" style="fill: #000000;text-anchor:start;font-family:monospace;font-style:normal;font-weight:normal" x="358.38" y="-185.867"/>
    <text font-size="12.7998" style="fill: #000000;text-anchor:start;font-family:monospace;font-style:normal;font-weight:normal" x="316.599" y="-149.368"/>
  </g>
  <g>
    <rect style="fill: #ffffff" x="521.068" y="-469.412" width="177.6" height="42"/>
    <rect style="fill: none; fill-opacity:0; stroke-width: 2; stroke: #000000" x="521.068" y="-469.412" width="177.6" height="42"/>
    <text font-size="16" style="fill: #000000;text-anchor:middle;font-family:sans-serif;font-style:normal;font-weight:700" x="609.868" y="-450.412">BuildFlightActivity</text>
    <text font-size="11.2" style="fill: #000000;text-anchor:middle;font-family:sans-serif;font-style:italic;font-weight:normal" x="609.868" y="-434.912">extends ActionBarActivity</text>
  </g>
  <g>
    <rect style="fill: #ffffff" x="719.846" y="-470.504" width="210.65" height="42"/>
    <rect style="fill: none; fill-opacity:0; stroke-width: 2; stroke: #000000" x="719.846" y="-470.504" width="210.65" height="42"/>
    <text font-size="16" style="fill: #000000;text-anchor:middle;font-family:sans-serif;font-style:normal;font-weight:700" x="825.171" y="-451.504">FlightManagerActivity</text>
    <text font-size="11.2" style="fill: #000000;text-anchor:middle;font-family:sans-serif;font-style:italic;font-weight:normal" x="825.171" y="-436.004">extends ActionBarActivity</text>
  </g>
  <g>
    <rect style="fill: #ffffff" x="433.42" y="-537.034" width="154.95" height="42"/>
    <rect style="fill: none; fill-opacity:0; stroke-width: 2; stroke: #000000" x="433.42" y="-537.034" width="154.95" height="42"/>
    <text font-size="16" style="fill: #000000;text-anchor:middle;font-family:sans-serif;font-style:normal;font-weight:700" x="510.895" y="-518.034">SettingActivity</text>
    <text font-size="11.2" style="fill: #000000;text-anchor:middle;font-family:sans-serif;font-style:italic;font-weight:normal" x="510.895" y="-502.534">extends ActionBarActivity</text>
  </g>
  <g>
    <rect style="fill: #ffffff" x="-25.4202" y="-365.798" width="195.25" height="42"/>
    <rect style="fill: none; fill-opacity:0; stroke-width: 2; stroke: #000000" x="-25.4202" y="-365.798" width="195.25" height="42"/>
    <text font-size="16" style="fill: #000000;text-anchor:middle;font-family:sans-serif;font-style:normal;font-weight:700" x="72.2048" y="-346.798">VisualisationActivity</text>
    <text font-size="11.2" style="fill: #000000;text-anchor:middle;font-family:sans-serif;font-style:italic;font-weight:normal" x="72.2048" y="-331.298">extends ActionBarActivity</text>
  </g>
  <g>
    <rect style="fill: #ffffff" x="237.93" y="-532.574" width="122.15" height="56"/>
    <rect style="fill: none; fill-opacity:0; stroke-width: 2; stroke: #000000" x="237.93" y="-532.574" width="122.15" height="56"/>
    <text font-size="16" style="fill: #000000;text-anchor:middle;font-family:sans-serif;font-style:normal;font-weight:700" x="299.005" y="-513.574">SurfaceView</text>
    <text font-size="11.2" style="fill: #000000;text-anchor:middle;font-family:sans-serif;font-style:italic;font-weight:normal" x="299.005" y="-498.074">extends</text>
    <text font-size="11.2" style="fill: #000000;text-anchor:middle;font-family:sans-serif;font-style:italic;font-weight:normal" x="299.005" y="-484.074">GLSurfaceView</text>
  </g>
  <g>
    <polyline style="fill: none; fill-opacity:0; stroke-width: 2; stroke: #000000" points="299.005,-450.395 299.005,-436.839 341.663,-436.839 341.663,-412.111 "/>
    <polygon style="fill: #ffffff" points="299.005,-475.567 303.805,-461.567 299.005,-447.567 294.205,-461.567 "/>
    <polygon style="fill: none; fill-opacity:0; stroke-width: 2; stroke: #000000" points="299.005,-475.567 303.805,-461.567 299.005,-447.567 294.205,-461.567 "/>
    <text font-size="12.7998" style="fill: #000000;text-anchor:middle;font-family:monospace;font-style:normal;font-weight:normal" x="320.334" y="-440.839"/>
    <text font-size="12.7998" style="fill: #000000;text-anchor:start;font-family:monospace;font-style:normal;font-weight:normal" x="310.005" y="-463.567"/>
    <text font-size="12.7998" style="fill: #000000;text-anchor:start;font-family:monospace;font-style:normal;font-weight:normal" x="345.663" y="-416.111"/>
  </g>
  <g>
    <polyline style="fill: none; fill-opacity:0; stroke-width: 2; stroke: #000000" points="196.007,-344.798 210.879,-344.798 210.879,-504.574 236.922,-504.574 "/>
    <polygon style="fill: #ffffff" points="170.836,-344.798 184.836,-349.598 198.836,-344.798 184.836,-339.998 "/>
    <polygon style="fill: none; fill-opacity:0; stroke-width: 2; stroke: #000000" points="170.836,-344.798 184.836,-349.598 198.836,-344.798 184.836,-339.998 "/>
    <text font-size="12.7998" style="fill: #000000;text-anchor:start;font-family:monospace;font-style:normal;font-weight:normal" x="212.879" y="-428.686"/>
    <text font-size="12.7998" style="fill: #000000;text-anchor:start;font-family:monospace;font-style:normal;font-weight:normal" x="202.836" y="-348.798"/>
    <text font-size="12.7998" style="fill: #000000;text-anchor:end;font-family:monospace;font-style:normal;font-weight:normal" x="232.922" y="-508.574"/>
  </g>
  <g>
    <polyline style="fill: none; fill-opacity:0; stroke-width: 2; stroke: #000000" points="825.171,-402.327 825.171,-323.972 782.859,-323.972 782.859,-234.445 "/>
    <polygon style="fill: #ffffff" points="825.171,-427.499 829.971,-413.499 825.171,-399.499 820.371,-413.499 "/>
    <polygon style="fill: none; fill-opacity:0; stroke-width: 2; stroke: #000000" points="825.171,-427.499 829.971,-413.499 825.171,-399.499 820.371,-413.499 "/>
    <text font-size="12.7998" style="fill: #000000;text-anchor:middle;font-family:monospace;font-style:normal;font-weight:normal" x="804.015" y="-327.972"/>
    <text font-size="12.7998" style="fill: #000000;text-anchor:start;font-family:monospace;font-style:normal;font-weight:normal" x="836.171" y="-415.499"/>
    <text font-size="12.7998" style="fill: #000000;text-anchor:start;font-family:monospace;font-style:normal;font-weight:normal" x="786.859" y="-238.445"/>
  </g>
  <g>
    <polyline style="fill: none; fill-opacity:0; stroke-width: 2; stroke: #000000" points="72.2048,-297.621 72.2048,-275.335 347.38,-275.335 347.38,-241.877 "/>
    <polygon style="fill: #ffffff" points="72.2048,-322.793 77.0048,-308.793 72.2048,-294.793 67.4048,-308.793 "/>
    <polygon style="fill: none; fill-opacity:0; stroke-width: 2; stroke: #000000" points="72.2048,-322.793 77.0048,-308.793 72.2048,-294.793 67.4048,-308.793 "/>
    <text font-size="12.7998" style="fill: #000000;text-anchor:middle;font-family:monospace;font-style:normal;font-weight:normal" x="209.792" y="-279.335"/>
    <text font-size="12.7998" style="fill: #000000;text-anchor:start;font-family:monospace;font-style:normal;font-weight:normal" x="83.2048" y="-310.793"/>
    <text font-size="12.7998" style="fill: #000000;text-anchor:start;font-family:monospace;font-style:normal;font-weight:normal" x="351.38" y="-245.877"/>
  </g>
  <g>
    <polyline style="fill: none; fill-opacity:0; stroke-width: 2; stroke: #000000" points="609.868,-401.235 609.868,-323.426 782.859,-323.426 782.859,-234.445 "/>
    <polygon style="fill: #ffffff" points="609.868,-426.407 614.668,-412.407 609.868,-398.407 605.068,-412.407 "/>
    <polygon style="fill: none; fill-opacity:0; stroke-width: 2; stroke: #000000" points="609.868,-426.407 614.668,-412.407 609.868,-398.407 605.068,-412.407 "/>
    <text font-size="12.7998" style="fill: #000000;text-anchor:middle;font-family:monospace;font-style:normal;font-weight:normal" x="696.363" y="-327.426"/>
    <text font-size="12.7998" style="fill: #000000;text-anchor:start;font-family:monospace;font-style:normal;font-weight:normal" x="620.868" y="-414.407"/>
    <text font-size="12.7998" style="fill: #000000;text-anchor:start;font-family:monospace;font-style:normal;font-weight:normal" x="786.859" y="-238.445"/>
  </g>
  <g>
    <polyline style="fill: none; fill-opacity:0; stroke-width: 2; stroke: #000000" points="524.63,3.7293 524.63,22.9103 524.508,22.9103 524.508,53.2628 "/>
    <polygon style="fill: #ffffff" points="524.63,-21.4423 529.43,-7.44228 524.63,6.55772 519.83,-7.44228 "/>
    <polygon style="fill: none; fill-opacity:0; stroke-width: 2; stroke: #000000" points="524.63,-21.4423 529.43,-7.44228 524.63,6.55772 519.83,-7.44228 "/>
    <text font-size="12.7998" style="fill: #000000;text-anchor:middle;font-family:monospace;font-style:normal;font-weight:normal" x="524.569" y="18.9103"/>
    <text font-size="12.7998" style="fill: #000000;text-anchor:start;font-family:monospace;font-style:normal;font-weight:normal" x="535.63" y="-9.44228"/>
    <text font-size="12.7998" style="fill: #000000;text-anchor:start;font-family:monospace;font-style:normal;font-weight:normal" x="528.508" y="49.2628"/>
  </g>
  <g>
    <polyline style="fill: none; fill-opacity:0; stroke-width: 2; stroke: #000000" points="782.859,-179.259 782.859,-178.394 786.335,-178.394 786.335,-166.358 "/>
    <polygon style="fill: #ffffff" points="782.859,-204.431 787.659,-190.431 782.859,-176.431 778.059,-190.431 "/>
    <polygon style="fill: none; fill-opacity:0; stroke-width: 2; stroke: #000000" points="782.859,-204.431 787.659,-190.431 782.859,-176.431 778.059,-190.431 "/>
  </g>
  <g>
    <rect style="fill: #ffffff" x="209.25" y="-607" width="179.35" height="28"/>
    <rect style="fill: none; fill-opacity:0; stroke-width: 2; stroke: #000000" x="209.25" y="-607" width="179.35" height="28"/>
    <text font-size="16" style="fill: #000000;text-anchor:middle;font-family:sans-serif;font-style:normal;font-weight:700" x="298.925" y="-588">SurfaceView.Touch</text>
  </g>
  <g>
    <rect style="fill: #ffffff" x="423.25" y="-619" width="173.5" height="42"/>
    <rect style="fill: none; fill-opacity:0; stroke-width: 2; stroke: #000000" x="423.25" y="-619" width="173.5" height="42"/>
    <text font-size="16" style="fill: #000000;text-anchor:middle;font-family:sans-serif;font-style:normal;font-weight:700" x="510" y="-600">SettingsFragment</text>
    <text font-size="11.2" style="fill: #000000;text-anchor:middle;font-family:sans-serif;font-style:italic;font-weight:normal" x="510" y="-584.5">extends PreferenceFragment</text>
  </g>
  <g>
    <rect style="fill: #ffffff" x="174.25" y="40" width="41.65" height="28"/>
    <rect style="fill: none; fill-opacity:0; stroke-width: 2; stroke: #000000" x="174.25" y="40" width="41.65" height="28"/>
    <text font-size="16" style="fill: #000000;text-anchor:middle;font-family:sans-serif;font-style:normal;font-weight:700" x="195.075" y="59">Util</text>
  </g>
  <g>
    <rect style="fill: #ffffff" x="-83.75" y="29" width="212.1" height="42"/>
    <rect style="fill: none; fill-opacity:0; stroke-width: 2; stroke: #000000" x="-83.75" y="29" width="212.1" height="42"/>
    <text font-size="16" style="fill: #000000;text-anchor:middle;font-family:sans-serif;font-style:normal;font-weight:700" x="22.3" y="48">InvalidFlightException</text>
    <text font-size="11.2" style="fill: #000000;text-anchor:middle;font-family:sans-serif;font-style:italic;font-weight:normal" x="22.3" y="63.5">extends Exception</text>
  </g>
  <g>
    <polyline style="fill: none; fill-opacity:0; stroke-width: 2; stroke-dasharray: 8; stroke: #000000" points="711.075,-219.438 683.046,-219.438 683.046,-222.288 653.723,-222.288 "/>
    <polyline style="fill: none; fill-opacity:0; stroke-width: 2; stroke: #000000" points="666.37,-227.288 650.37,-222.288 666.37,-217.288 "/>
  </g>
  <g>
    <polyline style="fill: none; fill-opacity:0; stroke-width: 2; stroke-dasharray: 8; stroke: #000000" points="684.454,-151.35 669.736,-151.35 669.736,-222.288 653.723,-222.288 "/>
    <polyline style="fill: none; fill-opacity:0; stroke-width: 2; stroke: #000000" points="666.37,-227.288 650.37,-222.288 666.37,-217.288 "/>
  </g>
  <g>
    <polyline style="fill: none; fill-opacity:0; stroke-width: 2; stroke-dasharray: 8; stroke: #000000" points="298.925,-577.993 298.925,-559.787 299.005,-559.787 299.005,-540.286 "/>
    <polyline style="fill: none; fill-opacity:0; stroke-width: 2; stroke: #000000" points="294.005,-552.934 299.005,-536.934 304.005,-552.934 "/>
  </g>
  <g>
    <polyline style="fill: none; fill-opacity:0; stroke-width: 2; stroke-dasharray: 8; stroke: #000000" points="510,-575.995 510,-560.514 510.895,-560.514 510.895,-543.739 "/>
    <polyline style="fill: none; fill-opacity:0; stroke-width: 2; stroke: #000000" points="505.895,-556.387 510.895,-540.387 515.895,-556.387 "/>
  </g>
</svg>
