<svg xmlns="http://www.w3.org/2000/svg" version="1.2" baseProfile="tiny" xmlns:xlink="http://www.w3.org/1999/xlink" id="sequenceSvg" viewBox="-1 -1 162 260" width="162" height="260"><g id="sequence"><g id="figure0" transform="translate(15.19,96.49) scale(1.3)"><text x="0" y="-8" style="font-family: verdana, helvetica, sans; font-size: 10px; fill: black;" text-anchor="middle">1</text><path d="M 0,0 m -4,0 a4,4 0 1 1 0,0.01" style="stroke: black; stroke-width: 1px; fill: black;"></path><path d="M 4,0 l 40,0" style="stroke: black; stroke-width: 1.5px; fill: none;"></path><path d="M 44,0 m -7.53,-15.64 l 8.31,3.64 l -6.93,4 z" style="stroke: black; stroke-width: 1px; fill: black;"></path><path d="M 44,0 m -7.53,-15.64 a 20,20 0 0 1 7.53,15.64 " style="stroke: black; stroke-width: 1.5px; fill: none;"></path><path d="M 44,0 l 20,0" style="stroke-dasharray: 5, 3; stroke: red; stroke-width: 1.5px; fill: none;"></path><path d="M 64,0 m -24,0 a24,24 0 1 1 0,0.01" style="stroke: red; stroke-width: 2px; fill: none;"></path><path d="M 64,0 m -7.53,15.64 l 8.31,-3.64 l -6.93,-4 z" style="stroke: red; stroke-width: 2px; fill: red;"></path><path d="M 64,0 m -7.53,15.64 a 20,20 0 0 0 7.53,-15.64 " style="stroke: red; stroke-width: 2px; fill: none;"></path><path d="M 64,0 l 40,0" style="stroke: black; stroke-width: 1.5px; fill: none;"></path><path d="M 104,0 l 0,-10 l 0,20" style="stroke: black; stroke-width: 1.5px; fill: none;"></path></g></g><rect x="0" y="0" width="160" height="258" style="stroke: black; stroke-width: 1px; fill: none;"></rect><text style="font-family: verdana, helvetica, sans; font-size: 12px; font-weight: bold; fill: black;" text-anchor="start" x="5" y="248">K: 10</text><text id="Fig0Aresti2" style="font-family: verdana, helvetica, sans; font-size: 12px; fill: black;" text-anchor="start" x="5" y="233">9.1.3.2(4)</text><text id="Fig0Aresti1" style="font-family: verdana, helvetica, sans; font-size: 12px; fill: black;" text-anchor="start" x="5" y="218">9.1.3.2(4)</text><text id="Fig0Aresti0" style="font-family: verdana, helvetica, sans; font-size: 12px; fill: black;" text-anchor="start" x="5" y="203">1.1.1.1(2)</text></svg>
