<svg xmlns="http://www.w3.org/2000/svg" version="1.2" baseProfile="tiny" xmlns:xlink="http://www.w3.org/1999/xlink" id="sequenceSvg" viewBox="-1 -1 162 260" width="162" height="260"><g id="sequence"><g id="figure0" transform="translate(19.5,144.39) scale(1.22)"><text x="0" y="-8" style="font-family: verdana, helvetica, sans; font-size: 10px; fill: black;" text-anchor="middle">1</text><path d="M 0,0 m -4,0 a4,4 0 1 1 0,0.01" style="stroke: black; stroke-width: 1px; fill: black;"></path><path d="M 4,0 l 60,0" style="stroke: black; stroke-width: 1.5px; fill: none;"></path><path d="M 64,0 a 40,28 0 1 0 -25.45,-49.6" style="stroke: black; stroke-width: 1.5px; fill: none;"></path><path d="M 38.55,-49.6 a 40,28 0 0 0 25.45139051903112,49.60071973609696" style="stroke-dasharray: 1, 3; stroke: black; stroke-width: 1px; fill: none;"></path><text x="58.55" y="-25.35" style="font-family: arial, sans; font-size: 20px; font-weight: bold; fill: red;" text-anchor="middle">270°</text><path d="M 38.55,-49.6 l -36.37,21" style="stroke: black; stroke-width: 1.5px; fill: none;"></path><path d="M 2.18,-28.6 l 10,0 l -20,0" style="stroke: black; stroke-width: 1.5px; fill: none;"></path></g></g><rect x="0" y="0" width="160" height="258" style="stroke: black; stroke-width: 1px; fill: none;"></rect><text style="font-family: verdana, helvetica, sans; font-size: 12px; font-weight: bold; fill: black;" text-anchor="start" x="5" y="248">K: 5</text><text id="Fig0Aresti0" style="font-family: verdana, helvetica, sans; font-size: 12px; fill: black;" text-anchor="start" x="5" y="233">2.3.1.1(5)</text></svg>
