<svg xmlns="http://www.w3.org/2000/svg" version="1.2" baseProfile="tiny" xmlns:xlink="http://www.w3.org/1999/xlink" id="sequenceSvg" viewBox="-1 -1 162 260" width="162" height="260"><g id="sequence"><g id="figure0" transform="translate(16.51,124.35) scale(0.71)"><text x="0" y="-8" style="font-family: verdana, helvetica, sans; font-size: 10px; fill: black;" text-anchor="middle">1</text><path d="M 0,0 m -4,0 a4,4 0 1 1 0,0.01" style="stroke: black; stroke-width: 1px; fill: black;"></path><path d="M 4,0 l 140,0" style="stroke: black; stroke-width: 1.5px; fill: none;"></path><path d="M 144,0 a40,40 0 1 0 -28.28,-68.28" style="stroke: black; stroke-width: 1.5px; fill: none;"></path><path d="M 115.72,-68.28 l -21.21,21.21" style="stroke-dasharray: 5, 3; stroke: red; stroke-width: 1.5px; fill: none;"></path><path d="M 94.51,-47.07 m -24,0 a24,24 0 1 1 0,0.01" style="stroke: red; stroke-width: 2px; fill: none;"></path><path d="M 94.51,-47.07 m -5.73,-16.38 l -3.31,8.45 l 7.73,-2.07 z" style="stroke: red; stroke-width: 2px; fill: red;"></path><path d="M 94.51,-47.07 m -5.73,-16.38 a 20,20 0 0 0 5.73,16.38 " style="stroke: red; stroke-width: 2px; fill: none;"></path><path d="M 94.51,-47.07 l -63.64,63.64" style="stroke: black; stroke-width: 1.5px; fill: none;"></path><path d="M 30.87,16.57 l -40,0" style="stroke: black; stroke-width: 1.5px; fill: none;"></path><path d="M -9.13,16.57 l 0,10 l 0,-20" style="stroke: black; stroke-width: 1.5px; fill: none;"></path></g></g><rect x="0" y="0" width="160" height="258" style="stroke: black; stroke-width: 1px; fill: none;"></rect><text style="font-family: verdana, helvetica, sans; font-size: 12px; font-weight: bold; fill: black;" text-anchor="start" x="5" y="248">K: 14</text><text id="Fig0Aresti1" style="font-family: verdana, helvetica, sans; font-size: 12px; fill: black;" text-anchor="start" x="5" y="233">9.1.4.2(4)</text><text id="Fig0Aresti0" style="font-family: verdana, helvetica, sans; font-size: 12px; fill: black;" text-anchor="start" x="5" y="218">8.5.6.1(10)</text></svg>
