<svg xmlns="http://www.w3.org/2000/svg" version="1.2" baseProfile="tiny" xmlns:xlink="http://www.w3.org/1999/xlink" id="sequenceSvg" viewBox="-1 -1 162 260" width="162" height="260"><g id="sequence"><g id="figure0" transform="translate(12.93,137.31) scale(0.73)"><text x="0" y="-8" style="font-family: verdana, helvetica, sans; font-size: 10px; fill: black;" text-anchor="middle">1</text><path d="M 0,0 m -4,0 a4,4 0 1 1 0,0.01" style="stroke: black; stroke-width: 1px; fill: black;"></path><path d="M 4,0 l 40,0" style="stroke: black; stroke-width: 1.5px; fill: none;"></path><path d="M 44,0 l 56.57,-56.57" style="stroke: black; stroke-width: 1.5px; fill: none;"></path><path d="M 100.57,-56.57 m -24,0 a24,24 0 1 1 0,0.01" style="stroke: red; stroke-width: 2px; fill: none;"></path><path d="M 100.57,-56.57 m 5.73,16.38 l 3.31,-8.45 l -7.73,2.07 z" style="stroke: red; stroke-width: 2px; fill: red;"></path><path d="M 100.57,-56.57 m 5.73,16.38 a 20,20 0 0 0 -5.73,-16.38 " style="stroke: red; stroke-width: 2px; fill: none;"></path><path d="M 100.57,-56.57 l 14.14,-14.14" style="stroke-dasharray: 5, 3; stroke: red; stroke-width: 1.5px; fill: none;"></path><path d="M 114.71,-70.71 a40,40 0 1 1 0,56.57" style="stroke: black; stroke-width: 1.5px; fill: none;"></path><path d="M 114.71,-14.14 l -70.71,-70.71" style="stroke: black; stroke-width: 1.5px; fill: none;"></path><path d="M 44,-84.85 l -40,0" style="stroke: black; stroke-width: 1.5px; fill: none;"></path><path d="M 4,-84.85 l 0,10 l 0,-20" style="stroke: black; stroke-width: 1.5px; fill: none;"></path></g></g><rect x="0" y="0" width="160" height="258" style="stroke: black; stroke-width: 1px; fill: none;"></rect><text style="font-family: verdana, helvetica, sans; font-size: 12px; font-weight: bold; fill: black;" text-anchor="start" x="5" y="248">K: 20</text><text id="Fig0Aresti1" style="font-family: verdana, helvetica, sans; font-size: 12px; fill: black;" text-anchor="start" x="5" y="233">9.1.2.2(6)</text><text id="Fig0Aresti0" style="font-family: verdana, helvetica, sans; font-size: 12px; fill: black;" text-anchor="start" x="5" y="218">7.3.2.1(14)</text></svg>
