<svg xmlns="http://www.w3.org/2000/svg" version="1.2" baseProfile="tiny" xmlns:xlink="http://www.w3.org/1999/xlink" id="sequenceSvg" viewBox="-1 -1 162 260" width="162" height="260"><g id="sequence"><g id="figure0" transform="translate(19.73,143.25) scale(0.59)"><text x="0" y="-8" style="font-family: verdana, helvetica, sans; font-size: 10px; fill: black;" text-anchor="middle">1</text><path d="M 0,0 m -4,0 a4,4 0 1 1 0,0.01" style="stroke: black; stroke-width: 1px; fill: black;"></path><path d="M 4,0 l 80,0" style="stroke: black; stroke-width: 1.5px; fill: none;"></path><path d="M 84,0 l 56.57,-56.57" style="stroke: black; stroke-width: 1.5px; fill: none;"></path><path d="M 140.57,-56.57 a40,40 0 1 1 0,56.57" style="stroke-dasharray: 5, 3; stroke: red; stroke-width: 1.5px; fill: none;"></path><path d="M 140.57,0 l -84.85,-84.85" style="stroke-dasharray: 5, 3; stroke: red; stroke-width: 1.5px; fill: none;"></path><path d="M 55.72,-84.85 a40,40 0 1 0 0,56.57" style="stroke: black; stroke-width: 1.5px; fill: none;"></path><path d="M 55.72,-28.28 l 84.85,-84.85" style="stroke: black; stroke-width: 1.5px; fill: none;"></path><path d="M 140.57,-113.13 l 80,0" style="stroke: black; stroke-width: 1.5px; fill: none;"></path><path d="M 220.57,-113.13 l 0,-10 l 0,20" style="stroke: black; stroke-width: 1.5px; fill: none;"></path></g></g><rect x="0" y="0" width="160" height="258" style="stroke: black; stroke-width: 1px; fill: none;"></rect><text style="font-family: verdana, helvetica, sans; font-size: 12px; font-weight: bold; fill: black;" text-anchor="start" x="5" y="248">K: 23</text><text id="Fig0Aresti0" style="font-family: verdana, helvetica, sans; font-size: 12px; fill: black;" text-anchor="start" x="5" y="233">7.8.9.1(23)</text></svg>
