<svg xmlns="http://www.w3.org/2000/svg" version="1.2" baseProfile="tiny" xmlns:xlink="http://www.w3.org/1999/xlink" id="sequenceSvg" viewBox="-1 -1 162 260" width="162" height="260"><g id="sequence"><g id="figure0" transform="translate(13.33,80.67) scale(0.83)"><text x="0" y="-8" style="font-family: verdana, helvetica, sans; font-size: 10px; fill: black;" text-anchor="middle">1</text><path d="M 0,0 m -4,0 a4,4 0 1 1 0,0.01" style="stroke: black; stroke-width: 1px; fill: black;"></path><path d="M 4,0 l 40,0" style="stroke: black; stroke-width: 1.5px; fill: none;"></path><path d="M 44,0 a40,40 0 0 1 40,40" style="stroke-dasharray: 5, 3; stroke: red; stroke-width: 1.5px; fill: none;"></path><path d="M 84,40 a40,40 0 0 0 11.72,28.28" style="stroke: black; stroke-width: 1.5px; fill: none;"></path><path d="M 95.72,68.28 a40,40 0 0 0 28.28,11.72" style="stroke: black; stroke-width: 1.5px; fill: none;"></path><path d="M 124,80 a40,40 0 0 0 28.28,-11.72" style="stroke: black; stroke-width: 1.5px; fill: none;"></path><path d="M 152.28,68.28 a40,40 0 0 0 11.72,-28.28" style="stroke: black; stroke-width: 1.5px; fill: none;"></path><path d="M 164,40 a40,40 0 0 0 -40,-40" style="stroke: black; stroke-width: 1.5px; fill: none;"></path><path d="M 124,0 m -24,0 a24,24 0 1 1 0,0.01" style="stroke: red; stroke-width: 2px; fill: none;"></path><path d="M 124,0 m 7.53,-15.64 l -8.31,3.64 l 6.93,4 z" style="stroke: red; stroke-width: 2px; fill: red;"></path><path d="M 124,0 m 7.53,-15.64 a 20,20 0 0 0 -7.53,15.64 " style="stroke: red; stroke-width: 2px; fill: none;"></path><path d="M 124,0 l -40,0" style="stroke: black; stroke-width: 1.5px; fill: none;"></path><path d="M 84,0 l 0,10 l 0,-20" style="stroke: black; stroke-width: 1.5px; fill: none;"></path></g></g><rect x="0" y="0" width="160" height="258" style="stroke: black; stroke-width: 1px; fill: none;"></rect><text style="font-family: verdana, helvetica, sans; font-size: 12px; font-weight: bold; fill: black;" text-anchor="start" x="5" y="248">K: 15</text><text id="Fig0Aresti1" style="font-family: verdana, helvetica, sans; font-size: 12px; fill: black;" text-anchor="start" x="5" y="233">9.1.3.2(4)</text><text id="Fig0Aresti0" style="font-family: verdana, helvetica, sans; font-size: 12px; fill: black;" text-anchor="start" x="5" y="218">7.4.12.3(11)</text></svg>
