<svg xmlns="http://www.w3.org/2000/svg" version="1.2" baseProfile="tiny" xmlns:xlink="http://www.w3.org/1999/xlink" id="sequenceSvg" viewBox="-1 -1 162 260" width="162" height="260"><g id="sequence"><g id="figure0" transform="translate(13.7,97.98) scale(0.92)"><text x="0" y="-8" style="font-family: verdana, helvetica, sans; font-size: 10px; fill: black;" text-anchor="middle">1</text><path d="M 0,0 m -4,0 a4,4 0 1 1 0,0.01" style="stroke: black; stroke-width: 1px; fill: black;"></path><path d="M 4,0 l 40,0" style="stroke: black; stroke-width: 1.5px; fill: none;"></path><path d="M 44,0 l 28.28,-28.28" style="stroke: black; stroke-width: 1.5px; fill: none;"></path><path d="M 72.28,-28.28 a 40,28 0 1 1 65.54,32.11" style="stroke: black; stroke-width: 1.5px; fill: none;"></path><path d="M 137.82,3.83 a 40,28 0 1 1 -65.53855364152324,-32.113891284346394" style="stroke-dasharray: 1, 3; stroke: black; stroke-width: 1px; fill: none;"></path><text x="109.54" y="-15.97" style="font-family: arial, sans; font-size: 20px; font-weight: bold; fill: red;" text-anchor="middle">180°</text><path d="M 137.82,3.83 l -56.57,56.57" style="stroke: black; stroke-width: 1.5px; fill: none;"></path><path d="M 81.25,60.4 l -40,0" style="stroke: black; stroke-width: 1.5px; fill: none;"></path><path d="M 41.25,60.4 l 0,10 l 0,-20" style="stroke: black; stroke-width: 1.5px; fill: none;"></path></g></g><rect x="0" y="0" width="160" height="258" style="stroke: black; stroke-width: 1px; fill: none;"></rect><text style="font-family: verdana, helvetica, sans; font-size: 12px; font-weight: bold; fill: black;" text-anchor="start" x="5" y="248">K: 8</text><text id="Fig0Aresti0" style="font-family: verdana, helvetica, sans; font-size: 12px; fill: black;" text-anchor="start" x="5" y="233">0.0(8)</text></svg>
